<?xml version="1.0" encoding="utf-8"?>
<!-- Generator: Adobe Illustrator 23.0.3, SVG Export Plug-In . SVG Version: 6.00 Build 0)  -->
<svg version="1.1" id="Calque_1" xmlns="http://www.w3.org/2000/svg" xmlns:xlink="http://www.w3.org/1999/xlink" x="0px" y="0px"
	 viewBox="0 0 1328 273" style="enable-background:new 0 0 1328 273;" xml:space="preserve">
<style type="text/css">
	.st0{fill:#FFFFFF;}
</style>
<path class="st0" d="M464.5,105.3c7,0,13,5.6,13,12s-6.4,12.4-13.4,12.4h-28.5c-22.6,0.7-29.6,8.1-29.4,31.7v55.4
	c-0.4,23.7,6.7,31.1,29.3,31.7h29.3c6.7,0,12.7,6,12.7,12.4c0,7.4-5.6,12-15.5,12h-28.6c-34.6,0.1-51.5-18.2-51.5-54.3v-58.9
	c0-36,16.9-54.4,51.5-54.4H464.5z M586.6,118.3c0-7.8,4.9-13,12-13c7.4,0,12.4,5.3,12.4,13v137.3c-0.4,13-4.9,17.7-16.2,17.3h-50.5
	c-36.4,1-51.9-17.3-52.5-62.4v-92.2c0-7.8,4.9-13,12-13c7.4,0,12.4,5.3,12.4,13v91.8c0,29.6,7.8,38.5,34.2,38.5h36.4V118.3z
	 M712.6,105.3c38.5,0.7,54,16.2,54,54.4v58.9c0.7,37.4-17.7,55.4-55.4,54.4h-49c-9.9,0.7-15.5-4.9-14.8-14.8V50.6
	c0-7.8,4.9-13,12-13c7.4,0,12.4,5.3,12.4,13v54.7H712.6z M671.7,248.6h39.2c21.6,0.4,31.5-9.5,31.5-31.7v-55.5
	c0-22.2-9.9-32.1-31.5-31.7h-39.2V248.6z M811.4,213.3c0.4,28.6,6,35,31.5,35.3h47.6c7.8,0,13.4,4.9,13.4,12.4c0,7-5.6,12-13.4,12
	h-48c-40.6,0-54-13.4-55.4-55v-51.5c0-35,24.7-61.1,57.9-61.1c21.2,0,41,11.7,50.5,30.3c4.9,9.5,7.8,22.6,7.8,37.4
	c0,23.7-2.5,27.8-16.6,27.8h-75.2V213.3z M878.5,176.6c0-32.5-10.3-46.6-33.5-46.6c-16.2,0-27.2,8.5-31.7,24.7
	c-1.4,5.6-1.8,8.5-1.8,21.9H878.5z M1016.9,50.6c0-7.8,4.9-13,12.4-13c7,0,12,5.3,12,13v207.5c0.7,9.9-4.9,15.5-14.8,14.8h-49
	c-37.7,1-56.2-16.9-55.4-54.4v-58.9c0-38.1,15.5-53.7,54-54.4h41V50.6z M977.7,129.6c-21.6-0.4-31.5,9.5-31.5,31.7v55.4
	c0,22.2,9.9,32.1,31.5,31.7h39.2V129.6H977.7z M1137,91.2h-15.8c-3.8,0-6.9-2.9-6.9-6.7V47.4c0-3.8,2.9-6.6,6.7-6.6h16.1
	c3.8,0,6.7,2.8,6.7,6.6v10.2h-9.9v-7.2h-9.5v31.4h9.5V74h9.9v10.6C1143.6,88.4,1140.8,91.2,1137,91.2z M1171.6,91.2V73.6h-8.9v17.6
	h-10.2V48.3c0-3.7,3.3-7.5,7-7.5h15.5c3.8,0,6.8,3.7,6.8,7.5v42.9H1171.6z M1171.9,49.8h-9.3v14h9.3V49.8z M1220,84.5
	c0,3.8-3.1,6.7-6.9,6.7h-15.8c-3.8,0-7-2.9-7-6.7v-7.9h10v5.4h10V70.5h-12.9c-3.8,0-7-2.8-7-5.8V47.5c0-4.2,3.2-6.6,7-6.6h16.1
	c3.8,0,6.7,2.8,6.7,6.6v7.9h-9.8v-5.2h-9.8v11.1h12.9c3.8,0,6.7,2.8,6.7,6.6L1220,84.5L1220,84.5z M1248.7,91.2V70.1h-9.8v21.1
	h-10.2V40.8h10.2v19.1h9.8V40.8h10.2v50.4H1248.7z M1137,181.6h-15.8c-3.8,0-6.9-2.9-6.9-6.7v-37.2c0-3.8,2.9-6.6,6.7-6.6h16.1
	c3.8,0,6.7,2.8,6.7,6.6v10.2h-9.9v-7.2h-9.5v31.4h9.5v-7.7h9.9V175C1143.6,178.8,1140.8,181.6,1137,181.6z M1171.8,181.6v-20.7h-9.3
	v20.7h-10.2v-50.4h22.2c3.8,0,6.9,3.4,6.9,7.1v12.4c0,3.7-2,6-4.8,6.1c3.6,0.2,4.9,4,4.9,8.3v16.4H1171.8z M1171.5,140.3h-9.3v11.2
	h9.3V140.3z M1190,181.6v-50.4h26.4v9.9h-16.7v10.2h13.3v9.4h-13.3v10.6h16.7v10.2L1190,181.6L1190,181.6z M1248.3,181.6h-22.7
	v-50.4h22.2c3.8,0,6.9,2.9,6.9,6.7V175C1254.7,178.8,1252.1,181.6,1248.3,181.6z M1244.8,140.7h-9.3v30.4h9.3V140.7z M1262.5,181.6
	v-50.4h10v50.4H1262.5z M1298.3,140.9v40.6h-10.1v-40.6h-11.1v-9.8h32.2v9.8H1298.3z M1137,271.8h-15.8c-3.8,0-6.9-2.9-6.9-6.7V228
	c0-3.8,2.9-6.6,6.7-6.6h16.1c3.8,0,6.7,2.8,6.7,6.6v10.3h-9.9v-7.2h-9.5v31.4h9.5v-7.7h9.9v10.6
	C1143.6,269.1,1140.8,271.8,1137,271.8z M1171.8,271.8v-20.7h-9.3v20.7h-10.2v-50.4h22.2c3.8,0,6.9,3.4,6.9,7.1V241
	c0,3.7-2,6-4.8,6.1c3.6,0.2,4.9,4,4.9,8.3v16.4H1171.8z M1171.5,230.6h-9.3v11.2h9.3V230.6z M1211.7,255.8h-3.5v16.1h-9.4v-16.1
	h-3.2c-3.8,0-6.5-2.8-6.5-6.6v-27.7h9.8v23.8h9.3v-23.8h10v27.7C1218.1,253,1215.5,255.8,1211.7,255.8z M1249,252.9h-12.7v18.9h-9.9
	v-50.4h22.2c3.8,0,6.9,2.9,6.9,6.7v18.3C1255.6,250.6,1252.1,252.9,1249,252.9z M1245.6,231h-9.3v12.4h9.3V231z M1282.9,231.3v40.6
	h-10.1v-40.6h-11.1v-9.8h32.2v9.8H1282.9z M1320.8,271.8h-16.2c-3.8,0-6.5-2.8-6.5-6.6v-37.2c0-3.8,3.1-6.7,6.9-6.7h15.2
	c3.8,0,6.9,2.9,6.9,6.7v37.2C1327.2,269.1,1324.6,271.8,1320.8,271.8z M1317.3,231h-9.1v30.4h9.1V231z M230.2,0.5h-48.6
	c-0.1,0-0.2,0-0.3,0s-0.2,0-0.3,0h-48.6c-2.7-0.1-5.2-0.1-7.8,0c-0.4,0-0.8,0-1.1,0H75C26-0.7,0,24.6,0,72.3v128.5
	c0.4,48.6,25.7,72.6,75,71.7h48.6c0.6,0,1,0,1.6-0.1c2.4,0.1,4.8,0.1,7.3,0.1H181c0.1,0,0.2,0,0.3,0s0.2,0,0.3,0h48.6
	c49.3,0.9,74.6-23.3,75-71.7V72.4C305.1,24.7,279-0.6,230.2,0.5z M234.6,244.4h-53c-0.1,0-0.2,0-0.3,0s-0.2,0-0.3,0h-53.1
	c-31.4,0-42.9-13-42.4-48.1V76.8c-0.4-35.1,11-47.7,42.4-48.1h53c0.1,0,0.2,0,0.3,0s0.2,0,0.3,0h53c31.4,0.4,42.8,13,42.4,48.1
	v119.4C277.4,231.4,266,244.4,234.6,244.4z"/>
</svg>
