<?xml version="1.0" encoding="utf-8"?>
<!-- Generator: Adobe Illustrator 24.0.2, SVG Export Plug-In . SVG Version: 6.00 Build 0)  -->
<svg version="1.1" id="Layer_1" xmlns="http://www.w3.org/2000/svg" xmlns:xlink="http://www.w3.org/1999/xlink" x="0px" y="0px"
	 viewBox="0 0 994.8 550.5" style="enable-background:new 0 0 994.8 550.5;" xml:space="preserve">
<style type="text/css">
	.st0{opacity:0.1;}
	.st1{enable-background:new    ;}
	.st2{fill:#FFFFFF;}
	.st3{fill:#3A0000;}
</style>
<g id="Layer_1_copy" class="st0">
	<g id="Group_1213_3_" transform="translate(-885 -49.991)">
		<g id="Group_1181_3_" transform="translate(885 49.991)">
			<g id="Group_116_3_" transform="translate(0 351.186)">
				<g class="st1">
					<path class="st2" d="M86.9,9.9c7.4,0,13.7,5.9,13.7,12.6s-6.7,13-14.1,13h-30C32.7,36.2,25.3,44,25.6,68.9v58.3
						c-0.4,24.9,7.1,32.7,30.8,33.4h30.8c7.1,0,13.4,6.3,13.4,13c0,7.8-5.9,12.6-16.3,12.6H54.2C17.8,186.3,0,167,0,129.1v-62
						C0,29.2,17.8,9.9,54.2,9.9H86.9z"/>
					<path class="st2" d="M215.4,23.6c0-8.2,5.2-13.7,12.6-13.7c7.8,0,13,5.6,13,13.7v144.5c-0.4,13.7-5.2,18.6-17.1,18.2h-53.1
						c-38.3,1.1-54.6-18.2-55.3-65.7v-97c0-8.2,5.2-13.7,12.6-13.7c7.8,0,13,5.6,13,13.7v96.6c0,31.2,8.2,40.5,36,40.5h38.3V23.6z"
						/>
					<path class="st2" d="M348,9.9c40.5,0.7,56.8,17.1,56.8,57.2v62c0.7,39.4-18.6,58.3-58.3,57.2h-51.6
						c-10.4,0.7-16.3-5.2-15.6-15.6V-47.7c0-8.2,5.2-13.7,12.6-13.7c7.8,0,13,5.6,13,13.7V9.9H348z M304.9,160.7h41.2
						c22.7,0.4,33.1-10,33.1-33.4V68.9c0-23.4-10.4-33.8-33.1-33.4h-41.2V160.7z"/>
					<path class="st2" d="M452,123.5c0.4,30.1,6.3,36.8,33.1,37.1h50.1c8.2,0,14.1,5.2,14.1,13c0,7.4-5.9,12.6-14.1,12.6h-50.5
						c-42.7,0-56.8-14.1-58.3-57.9V74.1c0-36.8,26-64.3,60.9-64.3c22.3,0,43.1,12.3,53.1,31.9c5.2,10,8.2,23.8,8.2,39.4
						c0,24.9-2.6,29.3-17.5,29.3H452V123.5z M522.6,84.9c0-34.2-10.8-49-35.3-49c-17.1,0-28.6,8.9-33.4,26c-1.5,5.9-1.9,8.9-1.9,23
						H522.6z"/>
					<path class="st2" d="M668.2-47.7c0-8.2,5.2-13.7,13-13.7c7.4,0,12.6,5.6,12.6,13.7v218.4c0.7,10.4-5.2,16.3-15.6,15.6h-51.6
						c-39.7,1.1-59.1-17.8-58.3-57.2v-62c0-40.1,16.3-56.5,56.8-57.2h43.1V-47.7z M627,35.5c-22.7-0.4-33.1,10-33.1,33.4v58.3
						c0,23.4,10.4,33.8,33.1,33.4h41.2V35.5H627z"/>
				</g>
			</g>
			<path class="st2" d="M571.6,0h-51.1c-0.1,0-0.2,0-0.3,0s-0.2,0-0.3,0h-51.1c-2.8-0.1-5.5-0.1-8.2,0c-0.4,0-0.8,0-1.2,0h-51.1
				c-51.5-1.3-78.9,25.3-78.9,75.5v135.2c0.4,51.1,27,76.4,78.9,75.5h51.1c0.6,0,1.1,0,1.7-0.1c2.5,0.1,5,0.1,7.7,0.1h51.1
				c0.1,0,0.2,0,0.3,0s0.2,0,0.3,0h51.1c51.9,0.9,78.5-24.5,78.9-75.5V75.6C650.5,25.4,623-1.2,571.6,0z M576.3,256.6h-55.8
				c-0.1,0-0.2,0-0.3,0s-0.2,0-0.3,0H464c-33,0-45.1-13.7-44.6-50.6V80.3C419,43.4,431,30.1,464,29.7h55.8c0.1,0,0.2,0,0.3,0
				s0.2,0,0.3,0h55.8c33,0.4,45,13.7,44.6,50.6V206C621.3,242.9,609.3,256.6,576.3,256.6z"/>
		</g>
		<g class="st1">
			<path class="st2" d="M1679.6,396.2H1663c-4,0-7.3-3.1-7.3-7v-39.1c0-4,3.1-6.9,7-6.9h16.9c4,0,7,2.9,7,6.9v10.7h-10.4v-7.6h-10
				v33h10v-8.1h10.4v11.2C1686.6,393.3,1683.6,396.2,1679.6,396.2z"/>
			<path class="st2" d="M1716,396.2v-18.5h-9.4v18.5h-10.7v-45.1c0-3.9,3.5-7.9,7.4-7.9h16.3c4,0,7.2,3.9,7.2,7.9v45.1H1716z
				 M1716.3,352.7h-9.8v14.7h9.8V352.7z"/>
			<path class="st2" d="M1767,389.2c0,4-3.3,7-7.3,7h-16.6c-4,0-7.4-3.1-7.4-7v-8.3h10.5v5.7h10.5v-12.2h-13.6c-4,0-7.4-2.9-7.4-6.1
				v-18.1c0-4.4,3.4-6.9,7.4-6.9h16.9c4,0,7,2.9,7,6.9v8.3h-10.3V353h-10.3v11.7h13.6c4,0,7,2.9,7,6.9L1767,389.2L1767,389.2z"/>
			<path class="st2" d="M1797.2,396.2V374h-10.3v22.2h-10.7v-53h10.7v20.1h10.3v-20.1h10.7v53H1797.2z"/>
		</g>
		<g class="st1">
			<path class="st2" d="M1679.6,491.3H1663c-4,0-7.3-3.1-7.3-7v-39.1c0-4,3.1-6.9,7-6.9h16.9c4,0,7,2.9,7,6.9v10.7h-10.4v-7.6h-10
				v33h10v-8.1h10.4v11.2C1686.6,488.4,1683.6,491.3,1679.6,491.3z"/>
			<path class="st2" d="M1716.2,491.3v-21.8h-9.8v21.8h-10.7v-53h23.4c4,0,7.3,3.6,7.3,7.5v13.1c0,3.9-2.1,6.3-5,6.4
				c3.8,0.2,5.2,4.2,5.2,8.7v17.3H1716.2z M1715.9,447.9h-9.8v11.8h9.8V447.9z"/>
			<path class="st2" d="M1735.4,491.3v-53h27.8v10.4h-17.6v10.7h14v9.9h-14v11.2h17.6v10.7L1735.4,491.3L1735.4,491.3z"/>
			<path class="st2" d="M1796.7,491.3h-23.9v-53h23.4c4,0,7.3,3.1,7.3,7v39.1C1803.5,488.4,1800.7,491.3,1796.7,491.3z M1793,448.3
				h-9.8v32h9.8V448.3z"/>
			<path class="st2" d="M1811.7,491.3v-53h10.5v53H1811.7z"/>
			<path class="st2" d="M1849.4,448.5v42.7h-10.6v-42.7h-11.7v-10.3h33.9v10.3H1849.4z"/>
		</g>
		<g class="st1">
			<path class="st2" d="M1679.6,586.3H1663c-4,0-7.3-3.1-7.3-7v-39.1c0-4,3.1-6.9,7-6.9h16.9c4,0,7,2.9,7,6.9V551h-10.4v-7.6h-10v33
				h10v-8.1h10.4v11.2C1686.6,583.4,1683.6,586.3,1679.6,586.3z"/>
			<path class="st2" d="M1716.2,586.3v-21.8h-9.8v21.8h-10.7v-53h23.4c4,0,7.3,3.6,7.3,7.5v13.1c0,3.9-2.1,6.3-5,6.4
				c3.8,0.2,5.2,4.2,5.2,8.7v17.3H1716.2z M1715.9,542.9h-9.8v11.8h9.8V542.9z"/>
			<path class="st2" d="M1758.2,569.4h-3.7v16.9h-9.9v-16.9h-3.4c-4,0-6.8-2.9-6.8-6.9v-29.2h10.3v25h9.8v-25h10.5v29.2
				C1765,566.5,1762.2,569.4,1758.2,569.4z"/>
			<path class="st2" d="M1797.5,566.4h-13.4v19.9h-10.4v-53h23.4c4,0,7.3,3.1,7.3,7v19.3C1804.4,564,1800.7,566.4,1797.5,566.4z
				 M1793.9,543.3h-9.8v13.1h9.8V543.3z"/>
			<path class="st2" d="M1833.1,543.6v42.7h-10.6v-42.7h-11.7v-10.3h33.9v10.3H1833.1z"/>
			<path class="st2" d="M1873,586.3h-17c-4,0-6.8-2.9-6.8-6.9v-39.1c0-4,3.3-7,7.3-7h16c4,0,7.3,3.1,7.3,7v39.1
				C1879.8,583.4,1877,586.3,1873,586.3z M1869.3,543.3h-9.6v32h9.6V543.3z"/>
		</g>
	</g>
	<g id="Group_1213_2_" transform="translate(-885 -49.991)">
		<g id="Group_1181_2_" transform="translate(885 49.991)">
			<g id="Group_116_2_" transform="translate(0 351.186)">
				<g class="st1">
					<path class="st3" d="M86.9,22.9c7.4,0,13.7,5.9,13.7,12.6s-6.7,13-14.1,13h-30C32.7,49.2,25.3,57,25.6,81.9v58.3
						c-0.4,24.9,7.1,32.7,30.8,33.4h30.8c7.1,0,13.4,6.3,13.4,13c0,7.8-5.9,12.6-16.3,12.6H54.2C17.8,199.3,0,180,0,142.1v-62
						c0-37.9,17.8-57.2,54.2-57.2C54.2,22.9,86.9,22.9,86.9,22.9z"/>
					<path class="st3" d="M215.4,36.6c0-8.2,5.2-13.7,12.6-13.7c7.8,0,13,5.6,13,13.7v144.5c-0.4,13.7-5.2,18.6-17.1,18.2h-53.1
						c-38.3,1.1-54.6-18.2-55.3-65.7v-97c0-8.2,5.2-13.7,12.6-13.7c7.8,0,13,5.6,13,13.7v96.6c0,31.2,8.2,40.5,36,40.5h38.3V36.6z"
						/>
					<path class="st3" d="M348,22.9c40.5,0.7,56.8,17.1,56.8,57.2v62c0.7,39.4-18.6,58.3-58.3,57.2h-51.6
						c-10.4,0.7-16.3-5.2-15.6-15.6V-34.7c0-8.2,5.2-13.7,12.6-13.7c7.8,0,13,5.6,13,13.7v57.6C304.9,22.9,348,22.9,348,22.9z
						 M304.9,173.7h41.2c22.7,0.4,33.1-10,33.1-33.4V81.9c0-23.4-10.4-33.8-33.1-33.4h-41.2V173.7z"/>
					<path class="st3" d="M452,136.5c0.4,30.1,6.3,36.8,33.1,37.1h50.1c8.2,0,14.1,5.2,14.1,13c0,7.4-5.9,12.6-14.1,12.6h-50.5
						c-42.7,0-56.8-14.1-58.3-57.9V87.1c0-36.8,26-64.3,60.9-64.3c22.3,0,43.1,12.3,53.1,31.9c5.2,10,8.2,23.8,8.2,39.4
						c0,24.9-2.6,29.3-17.5,29.3H452V136.5z M522.6,97.9c0-34.2-10.8-49-35.3-49c-17.1,0-28.6,8.9-33.4,26c-1.5,5.9-1.9,8.9-1.9,23
						H522.6z"/>
					<path class="st3" d="M668.2-34.7c0-8.2,5.2-13.7,13-13.7c7.4,0,12.6,5.6,12.6,13.7v218.4c0.7,10.4-5.2,16.3-15.6,15.6h-51.6
						c-39.7,1.1-59.1-17.8-58.3-57.2v-62c0-40.1,16.3-56.5,56.8-57.2h43.1V-34.7z M627,48.5c-22.7-0.4-33.1,10-33.1,33.4v58.3
						c0,23.4,10.4,33.8,33.1,33.4h41.2V48.5H627z"/>
				</g>
			</g>
			<path class="st3" d="M571.6,13h-51.1c-0.1,0-0.2,0-0.3,0s-0.2,0-0.3,0h-51.1c-2.8-0.1-5.5-0.1-8.2,0c-0.4,0-0.8,0-1.2,0h-51.1
				c-51.5-1.3-78.9,25.3-78.9,75.5v135.2c0.4,51.1,27,76.4,78.9,75.5h51.1c0.6,0,1.1,0,1.7-0.1c2.5,0.1,5,0.1,7.7,0.1h51.1
				c0.1,0,0.2,0,0.3,0s0.2,0,0.3,0h51.1c51.9,0.9,78.5-24.5,78.9-75.5V88.6C650.5,38.4,623,11.8,571.6,13z M576.3,269.6h-55.8
				c-0.1,0-0.2,0-0.3,0s-0.2,0-0.3,0H464c-33,0-45.1-13.7-44.6-50.6V93.3C419,56.4,431,43.1,464,42.7h55.8c0.1,0,0.2,0,0.3,0
				s0.2,0,0.3,0h55.8c33,0.4,45,13.7,44.6,50.6V219C621.3,255.9,609.3,269.6,576.3,269.6z"/>
		</g>
		<g class="st1">
			<path class="st3" d="M1679.6,409.2H1663c-4,0-7.3-3.1-7.3-7v-39.1c0-4,3.1-6.9,7-6.9h16.9c4,0,7,2.9,7,6.9v10.7h-10.4v-7.6h-10
				v33h10v-8.1h10.4v11.2C1686.6,406.3,1683.6,409.2,1679.6,409.2z"/>
			<path class="st3" d="M1716,409.2v-18.5h-9.4v18.5h-10.7v-45.1c0-3.9,3.5-7.9,7.4-7.9h16.3c4,0,7.2,3.9,7.2,7.9v45.1H1716z
				 M1716.3,365.7h-9.8v14.7h9.8V365.7z"/>
			<path class="st3" d="M1767,402.2c0,4-3.3,7-7.3,7h-16.6c-4,0-7.4-3.1-7.4-7v-8.3h10.5v5.7h10.5v-12.2h-13.6c-4,0-7.4-2.9-7.4-6.1
				v-18.1c0-4.4,3.4-6.9,7.4-6.9h16.9c4,0,7,2.9,7,6.9v8.3h-10.3V366h-10.3v11.7h13.6c4,0,7,2.9,7,6.9L1767,402.2L1767,402.2z"/>
			<path class="st3" d="M1797.2,409.2V387h-10.3v22.2h-10.7v-53h10.7v20.1h10.3v-20.1h10.7v53H1797.2z"/>
		</g>
		<g class="st1">
			<path class="st3" d="M1679.6,504.3H1663c-4,0-7.3-3.1-7.3-7v-39.1c0-4,3.1-6.9,7-6.9h16.9c4,0,7,2.9,7,6.9v10.7h-10.4v-7.6h-10
				v33h10v-8.1h10.4v11.2C1686.6,501.4,1683.6,504.3,1679.6,504.3z"/>
			<path class="st3" d="M1716.2,504.3v-21.8h-9.8v21.8h-10.7v-53h23.4c4,0,7.3,3.6,7.3,7.5v13.1c0,3.9-2.1,6.3-5,6.4
				c3.8,0.2,5.2,4.2,5.2,8.7v17.3H1716.2z M1715.9,460.9h-9.8v11.8h9.8V460.9z"/>
			<path class="st3" d="M1735.4,504.3v-53h27.8v10.4h-17.6v10.7h14v9.9h-14v11.2h17.6v10.7L1735.4,504.3L1735.4,504.3z"/>
			<path class="st3" d="M1796.7,504.3h-23.9v-53h23.4c4,0,7.3,3.1,7.3,7v39.1C1803.5,501.4,1800.7,504.3,1796.7,504.3z M1793,461.3
				h-9.8v32h9.8V461.3z"/>
			<path class="st3" d="M1811.7,504.3v-53h10.5v53H1811.7z"/>
			<path class="st3" d="M1849.4,461.5v42.7h-10.6v-42.7h-11.7v-10.3h33.9v10.3H1849.4z"/>
		</g>
		<g class="st1">
			<path class="st3" d="M1679.6,599.3H1663c-4,0-7.3-3.1-7.3-7v-39.1c0-4,3.1-6.9,7-6.9h16.9c4,0,7,2.9,7,6.9V564h-10.4v-7.6h-10v33
				h10v-8.1h10.4v11.2C1686.6,596.4,1683.6,599.3,1679.6,599.3z"/>
			<path class="st3" d="M1716.2,599.3v-21.8h-9.8v21.8h-10.7v-53h23.4c4,0,7.3,3.6,7.3,7.5v13.1c0,3.9-2.1,6.3-5,6.4
				c3.8,0.2,5.2,4.2,5.2,8.7v17.3H1716.2z M1715.9,555.9h-9.8v11.8h9.8V555.9z"/>
			<path class="st3" d="M1758.2,582.4h-3.7v16.9h-9.9v-16.9h-3.4c-4,0-6.8-2.9-6.8-6.9v-29.2h10.3v25h9.8v-25h10.5v29.2
				C1765,579.5,1762.2,582.4,1758.2,582.4z"/>
			<path class="st3" d="M1797.5,579.4h-13.4v19.9h-10.4v-53h23.4c4,0,7.3,3.1,7.3,7v19.3C1804.4,577,1800.7,579.4,1797.5,579.4z
				 M1793.9,556.3h-9.8v13.1h9.8V556.3z"/>
			<path class="st3" d="M1833.1,556.6v42.7h-10.6v-42.7h-11.7v-10.3h33.9v10.3H1833.1z"/>
			<path class="st3" d="M1873,599.3h-17c-4,0-6.8-2.9-6.8-6.9v-39.1c0-4,3.3-7,7.3-7h16c4,0,7.3,3.1,7.3,7v39.1
				C1879.8,596.4,1877,599.3,1873,599.3z M1869.3,556.3h-9.6v32h9.6V556.3z"/>
		</g>
	</g>
</g>
<g id="Layer_1_1_">
	<g id="Group_1213" transform="translate(-885 -49.991)">
		<g id="Group_1181" transform="translate(885 49.991)">
			<g id="Group_116" transform="translate(0 351.186)">
				<g class="st1">
					<path class="st2" d="M86.9,9.9c7.4,0,13.7,5.9,13.7,12.6s-6.7,13-14.1,13h-30C32.7,36.2,25.3,44,25.6,68.9v58.3
						c-0.4,24.9,7.1,32.7,30.8,33.4h30.8c7.1,0,13.4,6.3,13.4,13c0,7.8-5.9,12.6-16.3,12.6H54.2C17.8,186.3,0,167,0,129.1v-62
						C0,29.2,17.8,9.9,54.2,9.9H86.9z"/>
					<path class="st2" d="M215.4,23.6c0-8.2,5.2-13.7,12.6-13.7c7.8,0,13,5.6,13,13.7v144.5c-0.4,13.7-5.2,18.6-17.1,18.2h-53.1
						c-38.3,1.1-54.6-18.2-55.3-65.7v-97c0-8.2,5.2-13.7,12.6-13.7c7.8,0,13,5.6,13,13.7v96.6c0,31.2,8.2,40.5,36,40.5h38.3V23.6z"
						/>
					<path class="st2" d="M348,9.9c40.5,0.7,56.8,17.1,56.8,57.2v62c0.7,39.4-18.6,58.3-58.3,57.2h-51.6
						c-10.4,0.7-16.3-5.2-15.6-15.6V-47.7c0-8.2,5.2-13.7,12.6-13.7c7.8,0,13,5.6,13,13.7V9.9H348z M304.9,160.7h41.2
						c22.7,0.4,33.1-10,33.1-33.4V68.9c0-23.4-10.4-33.8-33.1-33.4h-41.2V160.7z"/>
					<path class="st2" d="M452,123.5c0.4,30.1,6.3,36.8,33.1,37.1h50.1c8.2,0,14.1,5.2,14.1,13c0,7.4-5.9,12.6-14.1,12.6h-50.5
						c-42.7,0-56.8-14.1-58.3-57.9V74.1c0-36.8,26-64.3,60.9-64.3c22.3,0,43.1,12.3,53.1,31.9c5.2,10,8.2,23.8,8.2,39.4
						c0,24.9-2.6,29.3-17.5,29.3H452V123.5z M522.6,84.9c0-34.2-10.8-49-35.3-49c-17.1,0-28.6,8.9-33.4,26c-1.5,5.9-1.9,8.9-1.9,23
						H522.6z"/>
					<path class="st2" d="M668.2-47.7c0-8.2,5.2-13.7,13-13.7c7.4,0,12.6,5.6,12.6,13.7v218.4c0.7,10.4-5.2,16.3-15.6,15.6h-51.6
						c-39.7,1.1-59.1-17.8-58.3-57.2v-62c0-40.1,16.3-56.5,56.8-57.2h43.1V-47.7z M627,35.5c-22.7-0.4-33.1,10-33.1,33.4v58.3
						c0,23.4,10.4,33.8,33.1,33.4h41.2V35.5H627z"/>
				</g>
			</g>
			<path class="st2" d="M571.6,0h-51.1c-0.1,0-0.2,0-0.3,0s-0.2,0-0.3,0h-51.1c-2.8-0.1-5.5-0.1-8.2,0c-0.4,0-0.8,0-1.2,0h-51.1
				c-51.5-1.3-78.9,25.3-78.9,75.5v135.2c0.4,51.1,27,76.4,78.9,75.5h51.1c0.6,0,1.1,0,1.7-0.1c2.5,0.1,5,0.1,7.7,0.1h51.1
				c0.1,0,0.2,0,0.3,0s0.2,0,0.3,0h51.1c51.9,0.9,78.5-24.5,78.9-75.5V75.6C650.5,25.4,623-1.2,571.6,0z M576.3,256.6h-55.8
				c-0.1,0-0.2,0-0.3,0s-0.2,0-0.3,0H464c-33,0-45.1-13.7-44.6-50.6V80.3C419,43.4,431,30.1,464,29.7h55.8c0.1,0,0.2,0,0.3,0
				s0.2,0,0.3,0h55.8c33,0.4,45,13.7,44.6,50.6V206C621.3,242.9,609.3,256.6,576.3,256.6z"/>
		</g>
		<g class="st1">
			<path class="st2" d="M1679.6,396.2H1663c-4,0-7.3-3.1-7.3-7v-39.1c0-4,3.1-6.9,7-6.9h16.9c4,0,7,2.9,7,6.9v10.7h-10.4v-7.6h-10
				v33h10v-8.1h10.4v11.2C1686.6,393.3,1683.6,396.2,1679.6,396.2z"/>
			<path class="st2" d="M1716,396.2v-18.5h-9.4v18.5h-10.7v-45.1c0-3.9,3.5-7.9,7.4-7.9h16.3c4,0,7.2,3.9,7.2,7.9v45.1H1716z
				 M1716.3,352.7h-9.8v14.7h9.8V352.7z"/>
			<path class="st2" d="M1767,389.2c0,4-3.3,7-7.3,7h-16.6c-4,0-7.4-3.1-7.4-7v-8.3h10.5v5.7h10.5v-12.2h-13.6c-4,0-7.4-2.9-7.4-6.1
				v-18.1c0-4.4,3.4-6.9,7.4-6.9h16.9c4,0,7,2.9,7,6.9v8.3h-10.3V353h-10.3v11.7h13.6c4,0,7,2.9,7,6.9L1767,389.2L1767,389.2z"/>
			<path class="st2" d="M1797.2,396.2V374h-10.3v22.2h-10.7v-53h10.7v20.1h10.3v-20.1h10.7v53H1797.2z"/>
		</g>
		<g class="st1">
			<path class="st2" d="M1679.6,491.3H1663c-4,0-7.3-3.1-7.3-7v-39.1c0-4,3.1-6.9,7-6.9h16.9c4,0,7,2.9,7,6.9v10.7h-10.4v-7.6h-10
				v33h10v-8.1h10.4v11.2C1686.6,488.4,1683.6,491.3,1679.6,491.3z"/>
			<path class="st2" d="M1716.2,491.3v-21.8h-9.8v21.8h-10.7v-53h23.4c4,0,7.3,3.6,7.3,7.5v13.1c0,3.9-2.1,6.3-5,6.4
				c3.8,0.2,5.2,4.2,5.2,8.7v17.3H1716.2z M1715.9,447.9h-9.8v11.8h9.8V447.9z"/>
			<path class="st2" d="M1735.4,491.3v-53h27.8v10.4h-17.6v10.7h14v9.9h-14v11.2h17.6v10.7L1735.4,491.3L1735.4,491.3z"/>
			<path class="st2" d="M1796.7,491.3h-23.9v-53h23.4c4,0,7.3,3.1,7.3,7v39.1C1803.5,488.4,1800.7,491.3,1796.7,491.3z M1793,448.3
				h-9.8v32h9.8V448.3z"/>
			<path class="st2" d="M1811.7,491.3v-53h10.5v53H1811.7z"/>
			<path class="st2" d="M1849.4,448.5v42.7h-10.6v-42.7h-11.7v-10.3h33.9v10.3H1849.4z"/>
		</g>
		<g class="st1">
			<path class="st2" d="M1679.6,586.3H1663c-4,0-7.3-3.1-7.3-7v-39.1c0-4,3.1-6.9,7-6.9h16.9c4,0,7,2.9,7,6.9V551h-10.4v-7.6h-10v33
				h10v-8.1h10.4v11.2C1686.6,583.4,1683.6,586.3,1679.6,586.3z"/>
			<path class="st2" d="M1716.2,586.3v-21.8h-9.8v21.8h-10.7v-53h23.4c4,0,7.3,3.6,7.3,7.5v13.1c0,3.9-2.1,6.3-5,6.4
				c3.8,0.2,5.2,4.2,5.2,8.7v17.3H1716.2z M1715.9,542.9h-9.8v11.8h9.8V542.9z"/>
			<path class="st2" d="M1758.2,569.4h-3.7v16.9h-9.9v-16.9h-3.4c-4,0-6.8-2.9-6.8-6.9v-29.2h10.3v25h9.8v-25h10.5v29.2
				C1765,566.5,1762.2,569.4,1758.2,569.4z"/>
			<path class="st2" d="M1797.5,566.4h-13.4v19.9h-10.4v-53h23.4c4,0,7.3,3.1,7.3,7v19.3C1804.4,564,1800.7,566.4,1797.5,566.4z
				 M1793.9,543.3h-9.8v13.1h9.8V543.3z"/>
			<path class="st2" d="M1833.1,543.6v42.7h-10.6v-42.7h-11.7v-10.3h33.9v10.3H1833.1z"/>
			<path class="st2" d="M1873,586.3h-17c-4,0-6.8-2.9-6.8-6.9v-39.1c0-4,3.3-7,7.3-7h16c4,0,7.3,3.1,7.3,7v39.1
				C1879.8,583.4,1877,586.3,1873,586.3z M1869.3,543.3h-9.6v32h9.6V543.3z"/>
		</g>
	</g>
	<g id="Group_1213_1_" transform="translate(-885 -49.991)">
		<g id="Group_1181_1_" transform="translate(885 49.991)">
			<g id="Group_116_1_" transform="translate(0 351.186)">
				<g class="st1">
					<path class="st2" d="M86.9,9.9c7.4,0,13.7,5.9,13.7,12.6s-6.7,13-14.1,13h-30C32.7,36.2,25.3,44,25.6,68.9v58.3
						c-0.4,24.9,7.1,32.7,30.8,33.4h30.8c7.1,0,13.4,6.3,13.4,13c0,7.8-5.9,12.6-16.3,12.6H54.2C17.8,186.3,0,167,0,129.1v-62
						C0,29.2,17.8,9.9,54.2,9.9H86.9z"/>
					<path class="st2" d="M215.4,23.6c0-8.2,5.2-13.7,12.6-13.7c7.8,0,13,5.6,13,13.7v144.5c-0.4,13.7-5.2,18.6-17.1,18.2h-53.1
						c-38.3,1.1-54.6-18.2-55.3-65.7v-97c0-8.2,5.2-13.7,12.6-13.7c7.8,0,13,5.6,13,13.7v96.6c0,31.2,8.2,40.5,36,40.5h38.3V23.6z"
						/>
					<path class="st2" d="M348,9.9c40.5,0.7,56.8,17.1,56.8,57.2v62c0.7,39.4-18.6,58.3-58.3,57.2h-51.6
						c-10.4,0.7-16.3-5.2-15.6-15.6V-47.7c0-8.2,5.2-13.7,12.6-13.7c7.8,0,13,5.6,13,13.7V9.9H348z M304.9,160.7h41.2
						c22.7,0.4,33.1-10,33.1-33.4V68.9c0-23.4-10.4-33.8-33.1-33.4h-41.2V160.7z"/>
					<path class="st2" d="M452,123.5c0.4,30.1,6.3,36.8,33.1,37.1h50.1c8.2,0,14.1,5.2,14.1,13c0,7.4-5.9,12.6-14.1,12.6h-50.5
						c-42.7,0-56.8-14.1-58.3-57.9V74.1c0-36.8,26-64.3,60.9-64.3c22.3,0,43.1,12.3,53.1,31.9c5.2,10,8.2,23.8,8.2,39.4
						c0,24.9-2.6,29.3-17.5,29.3H452V123.5z M522.6,84.9c0-34.2-10.8-49-35.3-49c-17.1,0-28.6,8.9-33.4,26c-1.5,5.9-1.9,8.9-1.9,23
						H522.6z"/>
					<path class="st2" d="M668.2-47.7c0-8.2,5.2-13.7,13-13.7c7.4,0,12.6,5.6,12.6,13.7v218.4c0.7,10.4-5.2,16.3-15.6,15.6h-51.6
						c-39.7,1.1-59.1-17.8-58.3-57.2v-62c0-40.1,16.3-56.5,56.8-57.2h43.1V-47.7z M627,35.5c-22.7-0.4-33.1,10-33.1,33.4v58.3
						c0,23.4,10.4,33.8,33.1,33.4h41.2V35.5H627z"/>
				</g>
			</g>
			<path class="st2" d="M571.6,0h-51.1c-0.1,0-0.2,0-0.3,0s-0.2,0-0.3,0h-51.1c-2.8-0.1-5.5-0.1-8.2,0c-0.4,0-0.8,0-1.2,0h-51.1
				c-51.5-1.3-78.9,25.3-78.9,75.5v135.2c0.4,51.1,27,76.4,78.9,75.5h51.1c0.6,0,1.1,0,1.7-0.1c2.5,0.1,5,0.1,7.7,0.1h51.1
				c0.1,0,0.2,0,0.3,0s0.2,0,0.3,0h51.1c51.9,0.9,78.5-24.5,78.9-75.5V75.6C650.5,25.4,623-1.2,571.6,0z M576.3,256.6h-55.8
				c-0.1,0-0.2,0-0.3,0s-0.2,0-0.3,0H464c-33,0-45.1-13.7-44.6-50.6V80.3C419,43.4,431,30.1,464,29.7h55.8c0.1,0,0.2,0,0.3,0
				s0.2,0,0.3,0h55.8c33,0.4,45,13.7,44.6,50.6V206C621.3,242.9,609.3,256.6,576.3,256.6z"/>
		</g>
		<g class="st1">
			<path class="st2" d="M1679.6,396.2H1663c-4,0-7.3-3.1-7.3-7v-39.1c0-4,3.1-6.9,7-6.9h16.9c4,0,7,2.9,7,6.9v10.7h-10.4v-7.6h-10
				v33h10v-8.1h10.4v11.2C1686.6,393.3,1683.6,396.2,1679.6,396.2z"/>
			<path class="st2" d="M1716,396.2v-18.5h-9.4v18.5h-10.7v-45.1c0-3.9,3.5-7.9,7.4-7.9h16.3c4,0,7.2,3.9,7.2,7.9v45.1H1716z
				 M1716.3,352.7h-9.8v14.7h9.8V352.7z"/>
			<path class="st2" d="M1767,389.2c0,4-3.3,7-7.3,7h-16.6c-4,0-7.4-3.1-7.4-7v-8.3h10.5v5.7h10.5v-12.2h-13.6c-4,0-7.4-2.9-7.4-6.1
				v-18.1c0-4.4,3.4-6.9,7.4-6.9h16.9c4,0,7,2.9,7,6.9v8.3h-10.3V353h-10.3v11.7h13.6c4,0,7,2.9,7,6.9L1767,389.2L1767,389.2z"/>
			<path class="st2" d="M1797.2,396.2V374h-10.3v22.2h-10.7v-53h10.7v20.1h10.3v-20.1h10.7v53H1797.2z"/>
		</g>
		<g class="st1">
			<path class="st2" d="M1679.6,491.3H1663c-4,0-7.3-3.1-7.3-7v-39.1c0-4,3.1-6.9,7-6.9h16.9c4,0,7,2.9,7,6.9v10.7h-10.4v-7.6h-10
				v33h10v-8.1h10.4v11.2C1686.6,488.4,1683.6,491.3,1679.6,491.3z"/>
			<path class="st2" d="M1716.2,491.3v-21.8h-9.8v21.8h-10.7v-53h23.4c4,0,7.3,3.6,7.3,7.5v13.1c0,3.9-2.1,6.3-5,6.4
				c3.8,0.2,5.2,4.2,5.2,8.7v17.3H1716.2z M1715.9,447.9h-9.8v11.8h9.8V447.9z"/>
			<path class="st2" d="M1735.4,491.3v-53h27.8v10.4h-17.6v10.7h14v9.9h-14v11.2h17.6v10.7L1735.4,491.3L1735.4,491.3z"/>
			<path class="st2" d="M1796.7,491.3h-23.9v-53h23.4c4,0,7.3,3.1,7.3,7v39.1C1803.5,488.4,1800.7,491.3,1796.7,491.3z M1793,448.3
				h-9.8v32h9.8V448.3z"/>
			<path class="st2" d="M1811.7,491.3v-53h10.5v53H1811.7z"/>
			<path class="st2" d="M1849.4,448.5v42.7h-10.6v-42.7h-11.7v-10.3h33.9v10.3H1849.4z"/>
		</g>
		<g class="st1">
			<path class="st2" d="M1679.6,586.3H1663c-4,0-7.3-3.1-7.3-7v-39.1c0-4,3.1-6.9,7-6.9h16.9c4,0,7,2.9,7,6.9V551h-10.4v-7.6h-10v33
				h10v-8.1h10.4v11.2C1686.6,583.4,1683.6,586.3,1679.6,586.3z"/>
			<path class="st2" d="M1716.2,586.3v-21.8h-9.8v21.8h-10.7v-53h23.4c4,0,7.3,3.6,7.3,7.5v13.1c0,3.9-2.1,6.3-5,6.4
				c3.8,0.2,5.2,4.2,5.2,8.7v17.3H1716.2z M1715.9,542.9h-9.8v11.8h9.8V542.9z"/>
			<path class="st2" d="M1758.2,569.4h-3.7v16.9h-9.9v-16.9h-3.4c-4,0-6.8-2.9-6.8-6.9v-29.2h10.3v25h9.8v-25h10.5v29.2
				C1765,566.5,1762.2,569.4,1758.2,569.4z"/>
			<path class="st2" d="M1797.5,566.4h-13.4v19.9h-10.4v-53h23.4c4,0,7.3,3.1,7.3,7v19.3C1804.4,564,1800.7,566.4,1797.5,566.4z
				 M1793.9,543.3h-9.8v13.1h9.8V543.3z"/>
			<path class="st2" d="M1833.1,543.6v42.7h-10.6v-42.7h-11.7v-10.3h33.9v10.3H1833.1z"/>
			<path class="st2" d="M1873,586.3h-17c-4,0-6.8-2.9-6.8-6.9v-39.1c0-4,3.3-7,7.3-7h16c4,0,7.3,3.1,7.3,7v39.1
				C1879.8,583.4,1877,586.3,1873,586.3z M1869.3,543.3h-9.6v32h9.6V543.3z"/>
		</g>
	</g>
</g>
<g class="st0">
	<path class="st3" d="M712.4,318.4h-4.9c-0.1-0.8-0.1-2.2,0-3H721c0.1,0.9,0.1,2.2,0,3h-4.9v14.3c-1.1,0.1-2.7,0.1-3.7,0V318.4z"/>
	<path class="st3" d="M736.4,321.9l-3.3,6.2c-0.9,0.1-1.7,0.1-2.6,0l-3.3-6.3v10.9c-1.1,0.1-2.6,0.1-3.7,0v-17.3
		c1.1-0.1,2.9-0.1,4,0l4.4,8.5l4.4-8.5c1.1-0.1,2.8-0.1,3.9,0v17.3c-1.1,0.1-2.7,0.1-3.7,0V321.9z"/>
</g>
<g>
	<path class="st2" d="M712.4,308.7h-4.9c-0.1-0.8-0.1-2.2,0-3H721c0.1,0.9,0.1,2.2,0,3h-4.9v14.3c-1.1,0.1-2.7,0.1-3.7,0V308.7z"/>
	<path class="st2" d="M736.4,312.2l-3.3,6.2c-0.9,0.1-1.7,0.1-2.6,0l-3.3-6.3v10.9c-1.1,0.1-2.6,0.1-3.7,0v-17.3
		c1.1-0.1,2.9-0.1,4,0l4.4,8.5l4.4-8.5c1.1-0.1,2.8-0.1,3.9,0v17.3c-1.1,0.1-2.7,0.1-3.7,0V312.2z"/>
</g>
</svg>
