<?xml version="1.0" encoding="utf-8"?>
<!-- Generator: Adobe Illustrator 23.0.3, SVG Export Plug-In . SVG Version: 6.00 Build 0)  -->
<svg version="1.1" id="Calque_1" xmlns="http://www.w3.org/2000/svg" xmlns:xlink="http://www.w3.org/1999/xlink" x="0px" y="0px"
	 viewBox="0 0 1041.3 273" style="enable-background:new 0 0 1041.3 273;" xml:space="preserve">
<style type="text/css">
	.st0{fill:#FFFFFF;}
</style>
<path class="st0" d="M464.5,81.2c7,0,13,5.6,13,12s-6.4,12.4-13.4,12.4h-28.5c-22.6,0.7-29.6,8.1-29.4,31.7v55.4
	c-0.4,23.7,6.7,31.1,29.3,31.7h29.3c6.7,0,12.7,6,12.7,12.4c0,7.4-5.6,12-15.5,12h-28.6c-34.6,0.1-51.5-18.2-51.5-54.3v-58.9
	c0-36,16.9-54.4,51.5-54.4H464.5z M586.6,94.2c0-7.8,4.9-13,12-13c7.4,0,12.4,5.3,12.4,13v137.3c-0.4,13-4.9,17.7-16.2,17.3h-50.5
	c-36.4,1-51.9-17.3-52.5-62.4V94.2c0-7.8,4.9-13,12-13c7.4,0,12.4,5.3,12.4,13V186c0,29.6,7.8,38.5,34.2,38.5h36.4V94.2z
	 M712.6,81.2c38.5,0.7,54,16.2,54,54.4v58.9c0.7,37.4-17.7,55.4-55.4,54.4h-49c-9.9,0.7-15.5-4.9-14.8-14.8V26.5c0-7.8,4.9-13,12-13
	c7.4,0,12.4,5.3,12.4,13v54.7H712.6z M671.7,224.5h39.2c21.6,0.4,31.5-9.5,31.5-31.7v-55.5c0-22.2-9.9-32.1-31.5-31.7h-39.2V224.5z
	 M811.4,189.2c0.4,28.6,6,35,31.5,35.3h47.6c7.8,0,13.4,4.9,13.4,12.4c0,7-5.6,12-13.4,12h-48c-40.6,0-54-13.4-55.4-55v-51.5
	c0-35,24.7-61.1,57.9-61.1c21.2,0,41,11.7,50.5,30.3c4.9,9.5,7.8,22.6,7.8,37.4c0,23.7-2.5,27.8-16.6,27.8h-75.2V189.2z
	 M878.5,152.5c0-32.5-10.3-46.6-33.5-46.6c-16.2,0-27.2,8.5-31.7,24.7c-1.4,5.6-1.8,8.5-1.8,21.9H878.5z M1016.9,26.5
	c0-7.8,4.9-13,12.4-13c7,0,12,5.3,12,13V234c0.7,9.9-4.9,15.5-14.8,14.8h-49c-37.7,1-56.2-16.9-55.4-54.4v-58.9
	c0-38.1,15.5-53.7,54-54.4h41V26.5z M977.7,105.6c-21.6-0.4-31.5,9.5-31.5,31.7v55.4c0,22.2,9.9,32.1,31.5,31.7h39.2V105.6H977.7z
	 M230.2,0.5h-48.6c-0.1,0-0.2,0-0.3,0s-0.2,0-0.3,0h-48.6c-2.7-0.1-5.2-0.1-7.8,0c-0.4,0-0.8,0-1.1,0H75C26-0.7,0,24.6,0,72.3v128.5
	c0.4,48.6,25.7,72.6,75,71.7h48.6c0.6,0,1,0,1.6-0.1c2.4,0.1,4.8,0.1,7.3,0.1H181c0.1,0,0.2,0,0.3,0s0.2,0,0.3,0h48.6
	c49.3,0.9,74.6-23.3,75-71.7V72.4C305.1,24.7,279-0.6,230.2,0.5z M234.6,244.4h-53c-0.1,0-0.2,0-0.3,0s-0.2,0-0.3,0h-53.1
	c-31.4,0-42.9-13-42.4-48.1V76.8c-0.4-35.1,11-47.7,42.4-48.1h53c0.1,0,0.2,0,0.3,0s0.2,0,0.3,0h53c31.4,0.4,42.8,13,42.4,48.1
	v119.4C277.4,231.4,266,244.4,234.6,244.4z"/>
</svg>
