<?xml version="1.0" encoding="utf-8"?>
<!-- Generator: Adobe Illustrator 23.0.3, SVG Export Plug-In . SVG Version: 6.00 Build 0)  -->
<svg version="1.1" id="Calque_1" xmlns="http://www.w3.org/2000/svg" xmlns:xlink="http://www.w3.org/1999/xlink" x="0px" y="0px"
	 viewBox="0 0 280 250" style="enable-background:new 0 0 280 250;" xml:space="preserve">
<style type="text/css">
	.st0{fill:#FF5555;}
</style>
<path class="st0" d="M211,0h-44.4h-0.3H166h-44.6c-2.3,0-4.7,0-7,0c-0.3,0-0.7,0-1.2,0H68.8C24-1.1,0,22.1,0,66v118
	c0.3,44.6,23.7,66.8,68.8,65.9h44.4c0.7,0,1.2,0,1.5,0c2,0,4.3,0,6.7,0H166h0.3h0.3h44.6c45.4,0.8,68.6-21.4,68.8-65.9V65.8
	C280.3,21.9,256.3-1.1,211,0z M254.4,179.9c0.3,32.2-10.2,44.2-38.9,44.2H167h-0.3h-0.3h-48.6c-29.1,0-39.2-12-38.9-44.2V70
	C78.5,37.8,89,26.1,117.7,25.8h48.6h0.3h0.3h48.6c28.7,0.3,39.2,12,38.9,44.2V179.9L254.4,179.9z"/>
</svg>
