<?xml version="1.0" encoding="utf-8"?>
<!-- Generator: Adobe Illustrator 23.0.3, SVG Export Plug-In . SVG Version: 6.00 Build 0)  -->
<svg version="1.1" id="Layer_1" xmlns="http://www.w3.org/2000/svg" xmlns:xlink="http://www.w3.org/1999/xlink" x="0px" y="0px"
	 viewBox="0 0 1600 590.4" style="enable-background:new 0 0 1600 590.4;" xml:space="preserve">
<style type="text/css">
	.st0{fill:#FF3131;}
	.st1{fill:#F42C2C;}
</style>
<g id="Hero">
	<path class="st0" d="M35.1,0c0,0,47,563.6,729.4,589.6S1564.9,0,1564.9,0H35.1z"/>
</g>
<g id="Hero_1_">
	<path class="st1" d="M75.8,0c0,0,44.5,533.6,690.6,558.3S1524.2,0,1524.2,0H75.8z"/>
</g>
<image style="overflow:visible;enable-background:new    ;" width="224" height="166" xlink:href="9E5B0ADA.jpg"  transform="matrix(0.995 0 0 0.995 -530.1929 -940.2921)">
</image>
<g id="Hero_2_">
	<path class="st0" d="M130.4,0c0,0,41.1,493.4,638.5,516.2C1366.3,538.9,1469.6,0,1469.6,0H130.4z"/>
</g>
<g id="Hero_3_">
	<path class="st1" d="M194,0c0,0,37.2,446.5,577.8,467.1S1406,0,1406,0H194z"/>
</g>
<g id="Hero_4_">
	<path class="st0" d="M252,0c0,0,33.7,403.8,522.6,422.4S1348,0,1348,0H252z"/>
</g>
<g id="Hero_6_">
	<path class="st1" d="M309.9,0c0,0,30.1,361.1,467.4,377.8S1290.1,0,1290.1,0H309.9z"/>
</g>
<g id="Hero_5_">
	<path class="st0" d="M356.7,0c0,0,27.2,326.6,422.7,341.7S1243.3,0,1243.3,0H356.7z"/>
</g>
<g id="Hero_8_">
	<path class="st1" d="M403.6,0c0,0,24.4,292.1,378,305.6S1196.4,0,1196.4,0H403.6z"/>
</g>
<g id="Hero_7_">
	<path class="st0" d="M441.5,0c0,0,22,264.2,341.9,276.4C1103.2,288.6,1158.5,0,1158.5,0H441.5z"/>
</g>
<g id="Hero_10_">
	<path class="st1" d="M486.4,0c0,0,19.3,231.1,299.1,241.7C1065.2,252.4,1113.6,0,1113.6,0H486.4z"/>
</g>
<g id="Hero_9_">
	<path class="st0" d="M516.4,0c0,0,17.4,209,270.5,218.6C1039.9,228.3,1083.6,0,1083.6,0H516.4z"/>
</g>
<g id="Hero_12_">
	<path class="st1" d="M552.1,0c0,0,15.2,182.7,236.4,191.1S1047.9,0,1047.9,0H552.1z"/>
</g>
<g id="Hero_11_">
	<path class="st0" d="M575.8,0c0,0,13.8,165.2,213.8,172.8S1024.2,0,1024.2,0H575.8z"/>
</g>
<g id="Hero_14_">
	<path class="st1" d="M616.5,0c0,0,11.3,135.2,175,141.5C955.2,147.7,983.5,0,983.5,0H616.5z"/>
</g>
<g id="Hero_13_">
	<path class="st0" d="M634,0c0,0,10.2,122.3,158.3,128C940.4,133.6,966,0,966,0H634z"/>
</g>
<g id="Hero_16_">
	<path class="st1" d="M674,0c0,0,7.7,92.9,120.2,97.1C906.6,101.4,926,0,926,0H674z"/>
</g>
<g id="Hero_15_">
	<path class="st0" d="M686,0c0,0,7,84,108.7,87.9S914,0,914,0H686z"/>
</g>
<g id="Hero_18_">
	<path class="st1" d="M727.3,0c0,0,4.5,53.6,69.3,56s76.1-56,76.1-56H727.3z"/>
</g>
<g id="Hero_17_">
	<path class="st0" d="M734.2,0c0,0,4,48.5,62.7,50.7C855.6,52.9,865.8,0,865.8,0H734.2z"/>
</g>
<polygon class="st1" points="261.7,350.1 256.9,343.4 743.1,-8.1 "/>
<polygon class="st1" points="798,552.5 790.9,552.5 790.9,50.7 "/>
<polygon class="st1" points="1329.5,339.3 1334.3,332.8 865.8,-3 "/>
<polygon class="st1" points="141.8,131.2 140.1,123.1 727.3,0 "/>
<polygon class="st1" points="1451.3,131.2 1453,123.1 865.8,0 "/>
</svg>
