<svg id="Calque_1" data-name="Calque 1" xmlns="http://www.w3.org/2000/svg" viewBox="0 0 280 249.96"><defs><style>.cls-1{fill:#f55;}</style></defs><title>favicon</title><path class="cls-1" d="M211,15H68.8C24,13.9,0,37.1,0,81V199c.3,44.6,23.7,66.8,68.8,65.9H211.2c45.4.8,68.6-21.4,68.8-65.9V80.8C280.3,36.9,256.3,13.9,211,15Zm43.4,179.9c.3,32.2-10.2,44.2-38.9,44.2H117.8c-29.1,0-39.2-12-38.9-44.2V85C78.5,52.8,89,41.1,117.7,40.8h97.8c28.7.3,39.2,12,38.9,44.2V194.9Z" transform="translate(0 -14.96)"/></svg>