<?xml version="1.0" encoding="utf-8"?>
<!-- Generator: Adobe Illustrator 23.0.3, SVG Export Plug-In . SVG Version: 6.00 Build 0)  -->
<svg version="1.1" id="Hero" xmlns="http://www.w3.org/2000/svg" xmlns:xlink="http://www.w3.org/1999/xlink" x="0px" y="0px"
	 viewBox="0 0 47.2 92.9" style="enable-background:new 0 0 47.2 92.9;" xml:space="preserve">
<style type="text/css">
	.st0{fill:none;stroke:#FF5555;stroke-width:2;stroke-linecap:round;stroke-linejoin:round;stroke-miterlimit:10;}
	.st1{fill:#FF5555;}
</style>
<line class="st0" x1="23.7" y1="34.2" x2="23.7" y2="27.7"/>
<line class="st0" x1="23.7" y1="20.4" x2="23.7" y2="13.9"/>
<line class="st0" x1="23.7" y1="7.4" x2="23.7" y2="0.9"/>
<path class="st1" d="M31.9,43.6h-5.2h0h0h-5.2c-0.3,0-0.6,0-0.8,0c0,0-0.1,0-0.1,0h-5.2c-5.3-0.1-8.1,2.6-8.1,7.7v13.8
	c0,5.2,2.8,7.8,8.1,7.7h5.2c0.1,0,0.1,0,0.2,0c0.2,0,0.5,0,0.8,0h5.2h0h0H32c5.3,0.1,8-2.5,8.1-7.7V51.3
	C40.1,46.1,37.2,43.4,31.9,43.6z M37,64.7c0,3.8-1.2,5.2-4.6,5.2h-5.7h0h0H21c-3.4,0-4.6-1.4-4.6-5.2V51.8c0-3.8,1.2-5.2,4.6-5.2
	h5.7h0h0h5.7c3.4,0,4.6,1.4,4.6,5.2V64.7L37,64.7z"/>
</svg>
