<?xml version="1.0" encoding="utf-8"?>
<!-- Generator: Adobe Illustrator 23.0.3, SVG Export Plug-In . SVG Version: 6.00 Build 0)  -->
<svg version="1.1" id="Calque_1" xmlns="http://www.w3.org/2000/svg" xmlns:xlink="http://www.w3.org/1999/xlink" x="0px" y="0px"
	 viewBox="0 0 798 454" style="enable-background:new 0 0 798 454;" xml:space="preserve">
<style type="text/css">
	.st0{opacity:0.2;}
</style>
<path class="st0" d="M357.7,158.5c-16.5,0-29.8,12.4-30,27.8c-0.2,24.2-0.4,57.5-0.2,70.7c0.2,15.4,13.6,27.7,30,27.7h65.3v-37.4
	H368v-51.5h54.9c0,0,0-27.2,0-37.4H357.7z"/>
<polygon class="st0" points="507.3,200.6 472.4,200.6 472.4,158.5 432.4,158.5 432.4,284.8 472.4,284.8 472.4,238 507.3,238 
	507.3,284.8 547.2,284.8 547.2,158.5 507.3,158.5 "/>
<path class="st0" d="M275.3,171.2L150.8,46.7L26.2,171.2c-29,29.2-29,76,0,105.2l124.6,124.5l124.5-124.5
	C304.3,247.1,304.3,200.4,275.3,171.2z M253.1,254.2L253.1,254.2l-102.6,102L48.6,254.4c-16.9-16.9-16.9-44.4,0-61.3L150.8,90.9
	c0,0,63,63.1,102.3,102.4C270,210.2,269.9,237.4,253.1,254.2z"/>
<polygon class="st0" points="597.2,247.4 597.2,238 652.1,238 652.1,205.3 597.2,205.3 597.2,195.9 652.1,195.9 652,158.6 
	557.2,158.5 557.2,284.8 652.1,284.8 652.1,247.4 "/>
<path class="st0" d="M225.5,243.2c12.2-12.2,9.5-29.3-2.8-41.5l-71.9-71.9l-19.4,19.4L225.5,243.2L225.5,243.2z"/>
<rect x="110" y="169.3" transform="matrix(0.7071 -0.7071 0.7071 0.7071 -102.0635 143.0989)" class="st0" width="23.5" height="50.9"/>
<rect x="168.1" y="227.4" transform="matrix(0.7071 -0.7071 0.7071 0.7071 -126.1324 201.2065)" class="st0" width="23.5" height="50.9"/>
<path class="st0" d="M76,204.4L76,204.4c-12.2,12.2-9.5,29.3,2.8,41.5l0,0l71.9,71.9l19.4-19.4L76,204.4z"/>
<polygon class="st0" points="749.3,222.1 793.5,158.5 741.7,158.5 722.8,185.3 704,158.6 652.1,158.6 696.4,222.1 652.1,284.8 
	705.9,284.8 722.8,261 739.6,284.8 793.5,284.8 "/>
</svg>
