<?xml version="1.0" encoding="utf-8"?>
<!-- Generator: Adobe Illustrator 23.0.3, SVG Export Plug-In . SVG Version: 6.00 Build 0)  -->
<svg version="1.1" id="Calque_1" xmlns="http://www.w3.org/2000/svg" xmlns:xlink="http://www.w3.org/1999/xlink" x="0px" y="0px"
	 viewBox="0 0 798 454" style="enable-background:new 0 0 798 454;" xml:space="preserve">
<style type="text/css">
	.st0{opacity:0.2;}
</style>
<path class="st0" d="M686.1,264.6l-168.3-163c-15-14.6-38.9-14.4-53.7,0.4l-92.8,92.9c-9.6,9.6-25.1,9.6-34.7,0c0,0,0,0,0,0
	l-92.1-92.1c-6.1-6.3-14.2-10.3-22.9-11.4c-11.6-1.4-23.2,2.7-31.4,11l-153.8,153l-16.3,16.3l0,0l16.3,16.4l53.1,53.1
	c8.4,8.5,19.5,13.8,31.4,15c14.5,1.3,28.8-4,39-14.3l77.5-76.8l0,0l94.9,101.6c13.1,13.8,35,14.4,48.8,1.3c0.6-0.5,1.1-1.1,1.7-1.7
	l94.2-105.5l0,0l89.6,85l0,0c12,9.7,29.4,8.8,40.3-2.1l79-79L686.1,264.6z M307.7,198.8l-7.2-1.6c-14.1-3.2-28.8,1.1-39,11.3
	L143.6,325.5c-10.2,10.2-26.8,10.2-37.1,0c0,0,0,0,0,0l-53.8-53.8l0,0l153.8-153c5.8-5.8,15.2-5.8,21,0c0,0,0,0,0,0L307.7,198.8z
	 M558.3,173.1L558.3,173.1c-0.6-0.2-22.7-6.2-37.8,8.9l-2.5,2.5l0,0l-71.3,71.3c-5.6,5.6-13.2,8.7-21.1,8.7
	c-7.9,0-15.5-3.2-21.1-8.7l-30.7-30.7l106.8-106.8c0.4-0.4,0.8-0.7,1.2-1l0.4-0.3l0.8-0.6l0.5-0.3l0.8-0.5l0.5-0.2
	c0.3-0.1,0.5-0.3,0.8-0.4l0.6-0.2l0.8-0.3l0.6-0.2l0.8-0.2h0.6c0.3,0,0.5-0.1,0.8-0.1h0.7h0.8l0,0h0.7h0.7l0.8,0.1
	c0.2,0,0.4,0,0.6,0.1l0.8,0.2l0.6,0.2l0.8,0.3l0.6,0.2l0.8,0.4l0.5,0.2c0.3,0.1,0.5,0.3,0.8,0.5l0.5,0.3l0.8,0.6l0.4,0.3
	c0.4,0.3,0.8,0.6,1.1,1L558.3,173.1L558.3,173.1z M791.1,162.7L708,245.8l-90.4-90.4L668,105c18.1-18.1,47.4-18.1,65.4,0
	L791.1,162.7z"/>
</svg>
