<?xml version="1.0" encoding="utf-8"?>
<!-- Generator: Adobe Illustrator 23.0.3, SVG Export Plug-In . SVG Version: 6.00 Build 0)  -->
<svg version="1.1" id="Calque_1" xmlns="http://www.w3.org/2000/svg" xmlns:xlink="http://www.w3.org/1999/xlink" x="0px" y="0px"
	 viewBox="0 0 798 454" style="enable-background:new 0 0 798 454;" xml:space="preserve">
<style type="text/css">
	.st0{opacity:0.2;}
</style>
<g class="st0">
	<path d="M367.3,162.2v122.6h-25.6V162.2h-26.2v-25.4h78v25.4H367.3z"/>
	<path d="M470.7,136.8c8.5,0,15.6,7,15.6,15.6v79.4c0,8.5-7.2,15.6-15.6,15.6h-38.1c-8.7,0-15.6-7.2-15.6-15.6v-79.4
		c0-8.7,7-15.6,15.6-15.6H470.7z M460.7,162.2h-18.4v59.7h18.4V162.2z"/>
	<path d="M683.7,259.2v25.6h-69.3v-148h69.3v25.4h-44v35.7h35.1v25.4h-35.1v35.9H683.7z"/>
	<path d="M759.2,197.9c8.5,0,15.6,7,15.6,15.6v55.6c0,8.5-7.2,15.6-15.6,15.6h-38.1c-8.7,0-15.6-7.2-15.6-15.6v-30.4l25.4-5.9v26.4
		h18.4v-35.9h-28.1c-8.7,0-15.6-7-15.6-15.6v-55.2c0-8.7,7-15.6,15.6-15.6h38.1c8.5,0,15.6,7,15.6,15.6v30l-25.6,5.9v-26.2h-18.4
		v35.7H759.2z"/>
	<g>
		<path d="M349.9,319.5h13.4c7.9,0,12.9,4.5,12.9,11.4v0.1c0,7.6-6.1,11.6-13.6,11.6h-6.7v10.9h-6V319.5z M362.8,337.2
			c4.5,0,7.3-2.5,7.3-6.1V331c0-4-2.9-6.1-7.3-6.1h-6.9v12.2H362.8z"/>
		<path d="M398.9,319.5h6V348h17.9v5.4h-23.8V319.5z"/>
		<path d="M457.5,319.2h5.5l15,34.2h-6.3l-3.4-8.2h-16.1l-3.5,8.2h-6.1L457.5,319.2z M466,340l-5.9-13.6l-5.8,13.6H466z"/>
		<path d="M504.3,325h-10.8v-5.5h27.6v5.5h-10.8v28.5h-6V325z"/>
		<path d="M543.9,319.5h25.3v5.4h-19.3v9.3H567v5.4h-17.1v13.8h-6V319.5z"/>
		<path d="M590.4,336.6L590.4,336.6c0-9.7,7.4-17.7,17.8-17.7c10.4,0,17.7,7.9,17.7,17.5v0.1c0,9.6-7.4,17.6-17.8,17.6
			C597.7,354.1,590.4,346.1,590.4,336.6z M619.7,336.6L619.7,336.6c0-6.7-4.8-12.2-11.6-12.2c-6.7,0-11.5,5.4-11.5,12v0.1
			c0,6.6,4.8,12.1,11.6,12.1C615,348.6,619.7,343.2,619.7,336.6z"/>
		<path d="M649.7,319.5h15.1c4.3,0,7.6,1.3,9.8,3.4c1.8,1.8,2.8,4.4,2.8,7.3v0.1c0,5.6-3.3,8.9-8.1,10.3l9.2,12.9h-7l-8.4-11.8H663
			h-7.4v11.8h-6V319.5z M664.4,336.3c4.3,0,7-2.2,7-5.7v-0.1c0-3.6-2.6-5.6-7-5.6h-8.7v11.4H664.4z"/>
		<path d="M701.3,319.5h6.4l10.3,16.1l10.3-16.1h6.4v34h-6v-24.4l-10.7,16h-0.2l-10.6-15.9v24.3h-5.9V319.5z"/>
	</g>
	<polygon points="600.9,137.9 573.4,137.9 536.5,210.3 536.5,138.7 511.8,138.7 511.1,138.7 511.1,286.7 511.8,286.7 536.5,286.7 
		536.5,260 547.6,242.5 568,287.4 594.4,287.4 561.6,215.1 	"/>
	<g>
		<rect x="416.9" y="260.5" width="69.5" height="5.4"/>
		<rect x="416.9" y="271.5" width="69.5" height="5.4"/>
		<rect x="416.9" y="282.6" width="69.5" height="5.4"/>
	</g>
</g>
<g class="st0">
	<path d="M137.8,334.7l-114.4-66V159.8l114.4-55.4l114.4,55.4v108.9L137.8,334.7z M35.1,261.9l102.6,59.3l102.6-59.3v-94.8
		l-102.6-49.7L35.1,167.2V261.9z"/>
	<g>
		<g>
			<path d="M105.9,185v1.5c0,24.8,31.9,38,32.9,38.4v-91.3C137.8,134.6,105.9,165.1,105.9,185z"/>
			<path d="M138.8,224.9L138.8,224.9C138.7,224.9,138.7,224.9,138.8,224.9L138.8,224.9z"/>
			<path d="M138.8,224.9C138.8,224.9,138.8,224.9,138.8,224.9L138.8,224.9L138.8,224.9z"/>
			<path d="M138.7,133.6C138.7,133.6,138.7,133.6,138.7,133.6L138.7,133.6L138.7,133.6z"/>
			<path d="M138.8,133.6v91.3c1-0.4,32.9-13.6,32.9-38.4V185C171.6,165.1,139.8,134.6,138.8,133.6z"/>
			<path d="M138.8,133.6L138.8,133.6C138.8,133.6,138.8,133.6,138.8,133.6L138.8,133.6z"/>
		</g>
		<g>
			<path d="M138.1,222.8c0,0-13.4-12.5-38.7-10.8c-25.3,1.7-36.8,36-52.8,34.9c0,0,27.6,22.5,51.5,26.4
				C119.6,276.6,141.9,260.6,138.1,222.8z"/>
			<path d="M138.8,221.9c0,0,5.6-5.5,18.9-8.5c5.2-1.2,11.4-1.8,18.5-1.3c25.3,1.7,36.8,36,52.8,34.9c0,0-27.6,22.5-51.5,26.4
				c-17.5,2.7-35.4-7.4-39.6-31.5C136.9,236.2,138.1,229,138.8,221.9z"/>
		</g>
	</g>
	<polygon points="138.5,373 23.1,306.4 23.1,312.7 138.5,379.3 252.4,313.5 252.4,307.2 	"/>
	<polygon points="23.1,293.5 23.1,299.9 138.5,366.5 252.4,300.7 252.4,294.3 138.5,360.1 	"/>
	<polygon points="138.5,353.6 252.4,287.8 252.4,281.5 138.5,347.3 23.1,280.7 23.1,287 	"/>
	<polygon points="137.8,227.9 28.1,169.7 30.5,165.1 137.8,222.1 245.1,165.1 247.5,169.7 	"/>
	<rect x="135.2" y="221.9" width="5.2" height="106.1"/>
	<path d="M137.8,334.7l-114.4-66V159.8l114.4-55.4l114.4,55.4v108.9L137.8,334.7z M35.1,261.9l102.6,59.3l102.6-59.3v-94.8
		l-102.6-49.7L35.1,167.2V261.9z"/>
	<rect x="135.2" y="221.9" width="5.2" height="106.1"/>
	<polygon points="138.5,373 23.1,306.4 23.1,312.7 138.5,379.3 252.4,313.5 252.4,307.2 	"/>
	<polygon points="23.1,293.5 23.1,299.9 138.5,366.5 252.4,300.7 252.4,294.3 138.5,360.1 	"/>
	<polygon points="138.5,353.6 252.4,287.8 252.4,281.5 138.5,347.3 23.1,280.7 23.1,287 	"/>
	<polygon points="137.8,227.9 28.1,169.7 30.5,165.1 137.8,222.1 245.1,165.1 247.5,169.7 	"/>
</g>
</svg>
