<?xml version="1.0" encoding="iso-8859-1"?>
<!-- Generator: Adobe Illustrator 19.0.0, SVG Export Plug-In . SVG Version: 6.00 Build 0)  -->
<svg version="1.1" id="Capa_1" xmlns="http://www.w3.org/2000/svg" xmlns:xlink="http://www.w3.org/1999/xlink" x="0px" y="0px"
	 viewBox="0 0 512 512" style="enable-background:new 0 0 512 512;" xml:space="preserve">
<path style="fill:#CBE6F7;" d="M10,133C10,65.069,65.069,10,133,10s123,55.069,123,123H10z"/>
<path style="fill:#F03C32;" d="M379,10c-43.113,0-246,0-246,0c67.931,0,123,55.069,123,123v369l41-40l40,40l40-40l41,40l40-40l44,40
	V133C502,65.069,446.931,10,379,10z"/>
<polygon style="fill:#CBE6F7;" points="400.511,284.918 377,237.279 353.489,284.918 300.915,292.557 338.958,329.639 329.977,382 
	377,357.279 424.023,382 415.042,329.639 453.085,292.557 "/>
<path d="M379,0H133C59.664,0,0,59.663,0,133c0,5.522,4.477,10,10,10h236c0,0,0,358.41,0,358.999c0,8.652,10.786,13.204,16.983,7.159
	l33.93-33.103l33.016,33.016c3.905,3.904,10.237,3.904,14.143,0l33.016-33.016l33.93,33.103c3.919,3.822,10.184,3.784,14.055-0.087
	l33.257-33.258c0,0,36.857,33.506,36.945,33.586C501.548,515.103,512,510.422,512,502V133C512,59.663,452.336,0,379,0z M133,20
	c28.023,0,55.823,10.875,76.452,29.841c16.352,15.033,28.027,35.318,33.429,56.921c1.33,5.319,2.19,10.779,2.672,16.238H20.438
	C25.517,65.357,74.061,20,133,20z M492,479.395l-27.273-24.794c-3.95-3.592-10.023-3.445-13.798,0.328l-33.016,33.016
	c0,0-33.904-33.077-33.93-33.103c-3.77-3.678-10.193-3.775-14.055,0.087L337,487.857l-32.929-32.929
	c-3.872-3.87-10.135-3.909-14.055-0.087L266,478.273V133c0-47.639-25.174-89.507-62.92-113H379c62.309,0,113,50.691,113,113V479.395
	z"/>
<path d="M303.99,141.689h0.08c5.52-0.04,9.97-4.56,9.92-10.069c-0.12-15.38-2.21-30.521-6.2-45c-3.81-13.81-9.26-26.709-16.2-38.35
	c-2.707-4.54-9.152-6.166-13.709-3.461c-4.557,2.704-6.272,9.011-3.461,13.711c12.43,20.8,19.38,46.82,19.58,73.25
	C294.04,137.24,298.52,141.689,303.99,141.689z"/>
<path d="M304,161.689c-5.51,0-10,4.49-10,10.011c0,5.51,4.49,9.989,10,9.989s10-4.479,10-9.989
	C314,166.18,309.51,161.689,304,161.689z"/>
<path d="M436.537,63.507c-15.74-13.597-31.526-19.296-32.19-19.531c-5.205-1.851-10.921,0.871-12.771,6.076
	c-1.849,5.204,0.872,10.921,6.076,12.77C398.167,63.004,449,81.654,449,133v40c0,5.522,4.477,10,10,10s10-4.478,10-10v-40
	C469,105.883,457.774,81.853,436.537,63.507z"/>
<path d="M454.522,282.661l-47.371-6.883c0,0-21.155-42.866-21.185-42.926c-3.529-7.15-14.276-7.382-17.935,0l-21.185,42.926
	c0,0-47.307,6.874-47.371,6.883c-7.883,1.145-11.451,11.298-5.542,17.058l34.277,33.412c0,0-8.077,47.095-8.092,47.179
	c-1.372,8,7.313,14.324,14.509,10.542L377,368.576c0,0,42.353,22.267,42.37,22.275c7.049,3.706,15.904-2.409,14.509-10.542
	l-8.092-47.179c0,0,34.195-33.332,34.277-33.412C465.846,294.083,462.488,283.82,454.522,282.661z M408.063,322.479
	c-2.357,2.298-3.433,5.607-2.876,8.852l5.555,32.39l-29.088-15.293c-1.457-0.766-3.055-1.148-4.653-1.148s-3.197,0.383-4.653,1.148
	l-29.088,15.293l5.555-32.39c0.557-3.244-0.519-6.554-2.876-8.852l-23.533-22.938l32.522-4.726c3.257-0.474,6.073-2.52,7.529-5.471
	L377,259.874l14.544,29.47c1.457,2.951,4.272,4.997,7.529,5.471l32.522,4.726L408.063,322.479z"/>
<g>
</g>
<g>
</g>
<g>
</g>
<g>
</g>
<g>
</g>
<g>
</g>
<g>
</g>
<g>
</g>
<g>
</g>
<g>
</g>
<g>
</g>
<g>
</g>
<g>
</g>
<g>
</g>
<g>
</g>
</svg>
