<svg height="512pt" viewBox="0 0 512 512" width="512pt" xmlns="http://www.w3.org/2000/svg"><path d="m336.488281 137.5c5.582031-11.632812 8.710938-24.65625 8.710938-38.394531 0-49.132813-40.015625-89.105469-89.199219-89.105469s-89.199219 39.972656-89.199219 89.105469c0 13.738281 3.128907 26.761719 8.710938 38.394531zm0 0" fill="#fbcf62"/><path d="m10 432.773438v34.113281c0 19.390625 15.722656 35.113281 35.113281 35.113281h421.773438c19.390625 0 35.113281-15.722656 35.113281-35.113281v-34.113281zm0 0" fill="#44a6a7"/><path d="m346.332031 466.105469h-180.664062v-33.332031h180.664062zm0 0" fill="#c4e7ea"/><path d="m23.550781 157.726562v275.046876h464.898438v-275.046876c0-11.171874-9.054688-20.226562-20.226563-20.226562h-424.445312c-11.171875 0-20.226563 9.054688-20.226563 20.226562zm0 0" fill="#44c4a1"/><path d="m201 180.5h244.449219v252.273438h-378.898438v-252.273438h44.449219" fill="#ebf0f3"/><path d="m155.671875 190.5c-2.640625 0-5.222656-1.070312-7.070313-2.929688-.472656-.460937-.882812-.972656-1.25-1.519531-.359374-.542969-.671874-1.121093-.921874-1.722656-.25-.609375-.4375-1.238281-.570313-1.878906-.128906-.640625-.199219-1.300781-.199219-1.949219 0-.652344.070313-1.3125.199219-1.949219.132813-.640625.320313-1.273437.570313-1.871093.25-.609376.5625-1.191407.921874-1.730469.367188-.550781.777344-1.0625 1.25-1.519531 1.859376-1.859376 4.429688-2.929688 7.070313-2.929688 2.628906 0 5.199219 1.066406 7.066406 2.929688.460938.460937.882813.96875 1.242188 1.519531.359375.539062.667969 1.117187.917969 1.730469.25.597656.441406 1.230468.570312 1.871093.128906.636719.199219 1.296875.199219 1.949219 0 .648438-.070313 1.308594-.199219 1.949219s-.320312 1.269531-.570312 1.878906c-.25.601563-.558594 1.179687-.917969 1.722656-.371094.546875-.78125 1.058594-1.242188 1.519531-1.859375 1.859376-4.4375 2.929688-7.066406 2.929688zm0 0"/><path d="m119.117188 220.695312h273.765624v179.289063h-273.765624zm0 0" fill="#c4e7ea"/><path d="m119.117188 220.695312h273.765624v49.199219h-273.765624zm0 0" fill="#44a6a7"/><path d="m200.234375 316.050781c-4.679687-5.949219-10.941406-9.769531-19.097656-9.769531-14.113281 0-25.554688 11.441406-25.554688 25.558594 0 14.113281 11.441407 25.554687 25.554688 25.554687 8.15625 0 14.417969-3.820312 19.097656-9.769531" fill="#e56353"/><path d="m246.886719 331.839844c0 14.113281-11.441407 25.554687-25.558594 25.554687-14.113281 0-25.554687-11.441406-25.554687-25.554687 0-14.117188 11.441406-25.558594 25.554687-25.558594 14.117187 0 25.558594 11.441406 25.558594 25.558594zm0 0" fill="#fbcf62"/><path d="m356.417969 325.367188h-46.949219c-5.523438 0-10-4.476563-10-10 0-5.519532 4.476562-10 10-10h46.949219c5.523437 0 10 4.480468 10 10 0 5.523437-4.476563 10-10 10zm0 0"/><path d="m356.417969 358.308594h-76.953125c-5.523438 0-10-4.476563-10-10 0-5.523438 4.476562-10 10-10h76.953125c5.523437 0 10 4.476562 10 10 0 5.523437-4.476563 10-10 10zm0 0"/><path d="m502 422.773438h-3.550781v-265.046876c0-16.667968-13.558594-30.226562-30.226563-30.226562h-117.160156c2.75-9.148438 4.136719-18.652344 4.136719-28.394531 0-54.644531-44.5-99.105469-99.199219-99.105469s-99.199219 44.460938-99.199219 99.105469c0 9.742187 1.386719 19.246093 4.136719 28.394531h-117.160156c-16.667969 0-30.226563 13.558594-30.226563 30.226562v265.046876h-3.550781c-5.523438 0-10 4.476562-10 10v34.113281c0 24.875 20.238281 45.113281 45.113281 45.113281h421.773438c24.875 0 45.113281-20.238281 45.113281-45.113281v-34.113281c0-5.523438-4.476562-10-10-10zm-325.199219-323.667969c0-43.617188 35.527344-79.105469 79.199219-79.105469s79.199219 35.488281 79.199219 79.105469c0 9.835937-1.769531 19.363281-5.269531 28.394531h-34.753907c.175781-1.386719.265625-2.789062.265625-4.199219 0-9.25-3.871094-17.972656-10.679687-24.195312 6.808593-6.222657 10.679687-14.941407 10.679687-24.191407 0-6.605468-1.964844-12.976562-5.683594-18.429687-5.605468-8.207031-15.078124-13.476563-25.316406-14.085937l-2.347656-.179688v-4.519531c0-4.722657-3.605469-8.589844-8.207031-8.804688-2.367188-.113281-4.648438.726563-6.371094 2.375-1.71875 1.640625-2.667969 3.851563-2.667969 6.230469v4.605469h-19.449218c-4.734376 0-8.613282 3.601562-8.832032 8.199219-.160156 3.410156 1.671875 6.523437 4.644532 8.058593v69.132813h-39.140626c-3.5-9.027344-5.269531-18.554688-5.269531-28.390625zm85.800781 8.617187c8.601563 0 15.597657 6.988282 15.597657 15.574219 0 1.457031-.203125 2.863281-.578125 4.203125h-39.160156v-19.777344zm-24.140624-17.234375v-31.152343h24.140624c8.601563 0 15.597657 6.988281 15.597657 15.578124 0 8.589844-6.996094 15.574219-15.597657 15.574219zm-204.910157 67.238281c0-5.640624 4.589844-10.226562 10.226563-10.226562h424.445312c5.640625 0 10.226563 4.585938 10.226563 10.226562v265.046876h-23v-242.273438c0-5.523438-4.476563-10-10-10h-244.449219c-5.523438 0-10 4.476562-10 10s4.476562 10 10 10h234.449219v232.273438h-358.898438v-232.273438h34.449219c5.523438 0 10-4.476562 10-10s-4.476562-10-10-10h-44.449219c-5.523437 0-10 4.476562-10 10v242.273438h-23zm142.117188 285.046876h160.664062v13.332031h-160.664062zm316.332031 24.113281c0 13.847656-11.265625 25.113281-25.113281 25.113281h-421.773438c-13.847656 0-25.113281-11.265625-25.113281-25.113281v-24.113281h135.667969v23.332031c0 5.523437 4.476562 10 10 10h180.664062c5.523438 0 10-4.476563 10-10v-23.332031h135.667969zm0 0"/><path d="m109.117188 220.695312v179.289063c0 5.523437 4.480468 10 10 10h273.765624c5.519532 0 10-4.476563 10-10v-179.289063c0-5.523437-4.480468-10-10-10h-273.765624c-5.519532 0-10 4.476563-10 10zm20 169.289063v-110.089844h253.765624v110.089844zm0-159.289063h253.765624v29.195313h-253.765624zm0 0"/><path d="m221.328125 296.28125c-7.605469 0-14.664063 2.402344-20.449219 6.488281-5.738281-4.269531-12.429687-6.488281-19.742187-6.488281-19.605469 0-35.554688 15.953125-35.554688 35.558594 0 19.601562 15.949219 35.554687 35.554688 35.554687 7.3125 0 14.003906-2.21875 19.742187-6.488281 5.785156 4.085938 12.84375 6.488281 20.453125 6.488281 19.605469 0 35.554688-15.949219 35.554688-35.554687 0-19.605469-15.949219-35.558594-35.558594-35.558594zm-55.746094 35.558594c0-8.578125 6.980469-15.558594 15.554688-15.558594 2.714843 0 5.097656.699219 7.261719 2.152344-1.691407 4.136718-2.621094 8.664062-2.621094 13.40625 0 4.738281.929687 9.265625 2.621094 13.402344-2.167969 1.453124-4.546876 2.152343-7.261719 2.152343-8.574219 0-15.554688-6.980469-15.554688-15.554687zm55.746094 15.554687c-8.574219 0-15.554687-6.980469-15.554687-15.554687 0-8.578125 6.980468-15.558594 15.554687-15.558594 8.578125 0 15.558594 6.980469 15.558594 15.558594 0 8.574218-6.980469 15.554687-15.558594 15.554687zm0 0"/></svg>