<svg height="512pt" viewBox="-20 0 512 512" width="512pt" xmlns="http://www.w3.org/2000/svg"><path d="m279.828125 481.09375h154.132813c15.167968 0 27.460937-12.296875 27.460937-27.460938v-395.265624c0-15.167969-12.296875-27.460938-27.460937-27.460938h-154.132813" fill="#00a891"/><path d="m423.210938 286.886719v-187.199219c-16.882813 0-30.570313-13.6875-30.570313-30.570312h-148.042969c0 16.882812-13.6875 30.570312-30.566406 30.570312v312.625c16.878906 0 30.566406 13.6875 30.566406 30.570312h148.042969c0-16.882812 13.6875-30.570312 30.570313-30.570312v-28.785156" fill="#30cfad"/><path d="m423.210938 343.378906c-.652344 0-1.3125-.070312-1.949219-.199218-.640625-.128907-1.273438-.320313-1.882813-.570313-.597656-.25-1.179687-.558594-1.71875-.917969-.550781-.359375-1.058594-.78125-1.519531-1.242187-.460937-.457031-.878906-.976563-1.242187-1.519531-.359376-.550782-.667969-1.128907-.917969-1.730469-.25-.597657-.449219-1.226563-.570313-1.867188-.128906-.640625-.199218-1.300781-.199218-1.949219 0-.652343.070312-1.3125.199218-1.960937.121094-.640625.320313-1.269531.570313-1.871094.25-.601562.558593-1.179687.917969-1.730469.363281-.539062.78125-1.050781 1.242187-1.519531.460937-.460937.96875-.871093 1.519531-1.238281.539063-.359375 1.121094-.671875 1.71875-.921875.609375-.25 1.242188-.4375 1.882813-.570313 1.289062-.257812 2.609375-.257812 3.898437 0 .640625.132813 1.269532.320313 1.871094.570313.609375.25 1.1875.5625 1.730469.921875.546875.367188 1.058593.777344 1.519531 1.238281.457031.46875.878906.980469 1.238281 1.519531.359375.550782.671875 1.132813.921875 1.730469.25.597657.449219 1.230469.570313 1.871094.128906.648437.199219 1.308594.199219 1.960937 0 .648438-.070313 1.308594-.199219 1.949219-.121094.640625-.320313 1.269531-.570313 1.867188-.25.601562-.5625 1.183593-.921875 1.730469-.359375.539062-.78125 1.0625-1.238281 1.519531-.460938.460937-.972656.882812-1.519531 1.242187-.542969.359375-1.121094.667969-1.730469.917969-.601562.25-1.230469.441406-1.871094.570313-.640625.128906-1.300781.199218-1.949218.199218zm0 0"/><path d="m345.847656 413.402344c-5.523437 0-10-4.480469-10-10v-74.816406c0-5.523438 4.476563-10 10-10 5.523438 0 10 4.476562 10 10v74.816406c0 5.523437-4.476562 10-10 10zm0 0"/><path d="m345.847656 164.738281c-5.523437 0-10-4.476562-10-10v-46.140625c0-5.523437 4.476563-10 10-10 5.523438 0 10 4.476563 10 10v46.140625c0 5.523438-4.476562 10-10 10zm0 0"/><path d="m10 420.625h281.601562v24.574219c0 31.371093-25.429687 56.800781-56.800781 56.800781h-168c-31.371093 0-56.800781-25.429688-56.800781-56.800781zm0 0" fill="#fff"/><path d="m291.601562 420.625h-281.601562v-343.253906h281.601562" fill="#6bcdf5"/><path d="m318.621094 211.101562c-10.144532 0-19.5 3.367188-27.015625 9.039063v71.71875c7.515625 5.671875 16.871093 9.039063 27.015625 9.039063 24.792968 0 44.894531-20.101563 44.894531-44.898438s-20.101563-44.898438-44.894531-44.898438zm0 0" fill="#ffd36c"/><path d="m291.601562 77.371094h-281.601562v-10.570313c0-31.371093 25.429688-56.800781 56.800781-56.800781h168c31.371094 0 56.804688 25.429688 56.804688 56.800781v10.570313zm0 0" fill="#fff"/><path d="m160.796875 471.3125h-19.988281c-5.523438 0-10-4.476562-10-10s4.476562-10 10-10h19.988281c5.523437 0 10 4.476562 10 10s-4.476563 10-10 10zm0 0"/><path d="m219.839844 53.6875c-.648438 0-1.308594-.066406-1.949219-.199219-.640625-.128906-1.269531-.316406-1.871094-.566406-.609375-.25-1.191406-.5625-1.730469-.921875-.550781-.359375-1.058593-.78125-1.519531-1.238281-.460937-.460938-.878906-.972657-1.238281-1.523438-.359375-.539062-.671875-1.128906-.921875-1.726562-.25-.601563-.4375-1.230469-.570313-1.871094-.128906-.640625-.199218-1.300781-.199218-1.949219 0-.652344.070312-1.3125.199218-1.960937.132813-.628907.320313-1.261719.570313-1.871094.25-.597656.5625-1.179687.921875-1.71875.359375-.550781.777344-1.058594 1.238281-1.519531.460938-.472656.96875-.882813 1.519531-1.25.539063-.359375 1.121094-.671875 1.730469-.921875.601563-.25 1.230469-.4375 1.871094-.570313 3.25-.648437 6.699219.410156 9.019531 2.742188 1.859375 1.859375 2.929688 4.429687 2.929688 7.066406 0 .652344-.070313 1.3125-.199219 1.953125-.121094.640625-.320313 1.269531-.570313 1.867187-.25.601563-.558593 1.191407-.921874 1.730469-.359376.550781-.777344 1.0625-1.238282 1.519531-1.859375 1.863282-4.429687 2.929688-7.070312 2.929688zm0 0"/><path d="m179.957031 53.6875h-98.195312c-5.523438 0-10-4.476562-10-10s4.476562-10 10-10h98.195312c5.523438 0 10 4.476562 10 10s-4.476562 10-10 10zm0 0"/><path d="m221.273438 164.46875h-140.945313c-15.039063 0-36.691406 41.664062-36.691406 56.703125v90.609375h36.40625v44.125h141.519531v-44.125h36.40625v-90.609375c0-15.039063-21.65625-56.703125-36.695312-56.703125zm0 0" fill="#ffd36c"/><path d="m150.800781 216.535156-42.0625-52.066406h84.125zm0 0" fill="#fff"/><path d="m433.960938 20.90625h-150.660157c-12.1875-12.867188-29.421875-20.90625-48.5-20.90625h-168c-36.832031 0-66.800781 29.96875-66.800781 66.800781v378.398438c0 36.832031 29.96875 66.800781 66.800781 66.800781h168c19.078125 0 36.3125-8.039062 48.5-20.90625h150.660157c20.65625 0 37.457031-16.804688 37.457031-37.460938v-395.265624c.003906-20.65625-16.800781-37.460938-37.457031-37.460938zm-132.355469 204.613281c5.167969-2.902343 10.96875-4.417969 17.015625-4.417969 19.242187 0 34.894531 15.65625 34.894531 34.898438s-15.652344 34.898438-34.894531 34.898438c-6.046875 0-11.847656-1.515626-17.015625-4.417969zm-281.605469-138.148437h261.605469v323.253906h-261.605469zm0-20.570313c0-25.804687 20.996094-46.800781 46.800781-46.800781h168c25.808594 0 46.804688 20.996094 46.804688 46.800781v.570313h-261.605469zm214.800781 425.199219h-168c-25.804687 0-46.800781-20.996094-46.800781-46.800781v-14.574219h261.605469v14.574219c0 25.804687-20.996094 46.800781-46.804688 46.800781zm216.621094-38.367188c0 9.628907-7.832031 17.460938-17.460937 17.460938h-137.578126c2.410157-5.710938 4.046876-11.828125 4.78125-18.210938h91.476563c5.523437 0 10-4.480468 10-10 0-11.34375 9.226563-20.566406 20.570313-20.566406 5.523437 0 10-4.480468 10-10v-28.789062c0-5.523438-4.476563-10-10-10-5.523438 0-10 4.476562-10 10v20.035156c-14.351563 3.652344-25.671876 14.972656-29.320313 29.320312h-82.285156v-124.660156c5.429687 1.765625 11.152343 2.675782 17.015625 2.675782 30.269531 0 54.894531-24.628907 54.894531-54.898438s-24.625-54.898438-54.894531-54.898438c-5.863282 0-11.585938.910157-17.015625 2.679688v-124.664062h82.285156c3.648437 14.351562 14.972656 25.667968 29.320313 29.320312v178.449219c0 5.519531 4.476562 10 10 10 5.523437 0 10-4.480469 10-10v-187.203125c0-5.519532-4.476563-10-10-10-11.34375 0-20.570313-9.226563-20.570313-20.566406 0-5.523438-4.476563-10-10-10h-91.476563c-.734374-6.382813-2.371093-12.5-4.78125-18.210938h137.578126c9.628906 0 17.460937 7.832031 17.460937 17.460938zm0 0"/><path d="m221.273438 154.46875h-140.945313c-13.394531 0-25.113281 15.015625-32.585937 27.609375-6.507813 10.972656-14.105469 27.792969-14.105469 39.09375v90.609375c0 5.523438 4.476562 10 10 10h26.40625v34.125c0 5.519531 4.476562 10 10 10h141.519531c5.523438 0 10-4.480469 10-10v-34.125h26.40625c5.523438 0 10-4.476562 10-10v-90.609375c0-11.300781-7.601562-28.121094-14.105469-39.09375-7.472656-12.59375-19.191406-27.609375-32.589843-27.609375zm-49.34375 20-21.128907 26.152344-21.125-26.152344zm76.039062 127.3125h-16.40625v-66.3125c0-5.519531-4.476562-10-10-10s-10 4.480469-10 10v110.4375h-121.519531v-110.4375c0-5.519531-4.476563-10-10-10-5.523438 0-10 4.480469-10 10v66.3125h-16.40625v-80.605469c0-4.550781 3.953125-16.128906 10.566406-27.625 7.714844-13.40625 14.226563-18.605469 16.261719-19.082031h23.5l39.058594 48.351562c1.898437 2.351563 4.757812 3.71875 7.78125 3.71875 3.019531 0 5.878906-1.367187 7.777343-3.71875l39.058594-48.351562h23.5c2.035156.476562 8.546875 5.675781 16.261719 19.082031 6.613281 11.496094 10.566406 23.074219 10.566406 27.625zm0 0"/></svg>