<?xml version="1.0" encoding="utf-8"?>
<!-- Generator: Adobe Illustrator 23.0.3, SVG Export Plug-In . SVG Version: 6.00 Build 0)  -->
<svg version="1.1" id="Hero" xmlns="http://www.w3.org/2000/svg" xmlns:xlink="http://www.w3.org/1999/xlink" x="0px" y="0px"
	 viewBox="0 0 41 38.8" style="enable-background:new 0 0 41 38.8;" xml:space="preserve">
<style type="text/css">
	.st0{fill:#DFFFDC;}
	.st1{fill:#D3E6F8;}
	.st2{fill:#A4CFF2;}
	.st3{fill:#4C4372;}
	.st4{fill:#FF5555;}
	.st5{fill:#FF3131;}
	.st6{fill:#C4E7EA;}
	.st7{fill:#EBF0F3;}
	.st8{fill:#E56353;}
	.st9{fill:#FBCF62;}
</style>
<g>
	<title>060 cpu 2</title>
	<g>
		<path class="st0" d="M-31.2,49.8c0,8.7-7,15.7-15.7,15.7c-8.7,0-15.7-7-15.7-15.7s7-15.7,15.7-15.7
			C-38.2,34.1-31.2,41.1-31.2,49.8z"/>
		<path class="st1" d="M-46.9,30.8c-5.5,0-10,4.5-10,10v12.1h3.4v4.3c0,1.7,1.3,3,3,3h3.4v8.5h10.2V40.8
			C-36.9,35.3-41.4,30.8-46.9,30.8L-46.9,30.8z"/>
		<path class="st2" d="M-46.9,30.8c-0.3,0-0.7,0-1,0.1c5,0.5,9,4.8,9,9.9v27.9h2V40.8C-36.9,35.3-41.4,30.8-46.9,30.8L-46.9,30.8z"
			/>
		<path class="st3" d="M-36.9,69.1h-10.2c-0.2,0-0.4-0.2-0.4-0.4l0,0v-8h-2.9c-1.9,0-3.4-1.5-3.4-3.4v-4h-3c-0.2,0-0.4-0.2-0.4-0.4
			l0,0V40.8c0-5.7,4.7-10.4,10.4-10.4c5.7,0,10.4,4.7,10.4,10.4v27.9C-36.5,68.9-36.7,69.1-36.9,69.1L-36.9,69.1z M-46.6,68.3h9.3
			V40.9c0-5.3-4.3-9.5-9.5-9.5c-5.3,0-9.5,4.3-9.5,9.5v11.6h3c0.2,0,0.4,0.2,0.4,0.4v4.3c0,1.4,1.1,2.6,2.6,2.6h3.4
			c0.2,0,0.4,0.2,0.4,0.4L-46.6,68.3L-46.6,68.3z"/>
		<path class="st4" d="M-45.3,45.5h-3.6c-0.6,0-1.2-0.5-1.2-1.2v-3.6c0-0.6,0.5-1.2,1.2-1.2h3.6c0.6,0,1.2,0.5,1.2,1.2v3.6
			C-44.1,45-44.6,45.5-45.3,45.5L-45.3,45.5z"/>
		<path class="st5" d="M-45.3,39.5h-0.4v5.9h0.4c0.6,0,1.2-0.5,1.2-1.2v-3.6C-44.1,40-44.6,39.5-45.3,39.5L-45.3,39.5z"/>
		<path class="st4" d="M-52.7,42.5c0,0.5-0.4,1-1,1c-0.5,0-1-0.4-1-1c0-0.5,0.4-1,1-1C-53.2,41.5-52.7,42-52.7,42.5z"/>
		<path class="st4" d="M-39.5,42.5c0,0.5-0.4,1-1,1c-0.5,0-1-0.4-1-1c0-0.5,0.4-1,1-1S-39.5,42-39.5,42.5z"/>
		<path class="st4" d="M-46.1,35.9c0,0.5-0.4,1-1,1c-0.5,0-1-0.4-1-1c0-0.5,0.4-1,1-1S-46.1,35.3-46.1,35.9L-46.1,35.9z"/>
		<path class="st4" d="M-46.1,49.1c0,0.5-0.4,1-1,1c-0.5,0-1-0.4-1-1c0-0.5,0.4-1,1-1C-46.5,48.2-46.1,48.6-46.1,49.1L-46.1,49.1z"
			/>
		<g>
			<path class="st3" d="M-45.3,45.9h-3.6c-0.9,0-1.6-0.7-1.6-1.6v-3.6c0-0.9,0.7-1.6,1.6-1.6h3.6c0.9,0,1.6,0.7,1.6,1.6v3.6
				C-43.7,45.2-44.4,45.9-45.3,45.9L-45.3,45.9z M-48.9,40c-0.4,0-0.7,0.3-0.7,0.7v3.6c0,0.4,0.3,0.7,0.7,0.7h3.6
				c0.4,0,0.7-0.3,0.7-0.7v-3.6c0-0.4-0.3-0.7-0.7-0.7H-48.9z"/>
			<path class="st3" d="M-50,44.4h-2c-0.2,0-0.4-0.2-0.4-0.4c0-0.2,0.2-0.4,0.4-0.4l0,0h2c0.2,0,0.4,0.2,0.4,0.4S-49.8,44.4-50,44.4
				L-50,44.4z"/>
			<path class="st3" d="M-50,42.9h-2.7c-0.2,0-0.4-0.2-0.5-0.4c0-0.2,0.2-0.4,0.4-0.5l0,0h2.7c0.2,0,0.4,0.2,0.4,0.4
				C-49.6,42.7-49.8,42.9-50,42.9L-50,42.9z"/>
			<path class="st3" d="M-50,41.5h-2c-0.2,0-0.4-0.2-0.4-0.4v-1.5c0-0.2,0.2-0.4,0.4-0.4s0.4,0.2,0.4,0.4v1.1h1.5
				c0.2,0,0.4,0.2,0.4,0.4C-49.6,41.3-49.8,41.5-50,41.5L-50,41.5L-50,41.5z"/>
			<path class="st3" d="M-42.1,45.9c-0.2,0-0.4-0.2-0.4-0.4l0,0v-1.1H-44c-0.2,0-0.4-0.2-0.4-0.4c0-0.2,0.2-0.4,0.4-0.4l0,0h2
				c0.2,0,0.4,0.2,0.4,0.4l0,0v1.5C-41.7,45.7-41.9,45.9-42.1,45.9z"/>
			<path class="st3" d="M-41.4,42.9h-2.7c-0.2,0-0.4-0.2-0.5-0.4c0-0.2,0.2-0.4,0.4-0.5l0,0h2.7c0.2,0,0.4,0.2,0.4,0.4
				C-41,42.7-41.2,42.9-41.4,42.9L-41.4,42.9z"/>
			<path class="st3" d="M-42.1,41.5h-2c-0.2,0-0.4-0.2-0.4-0.4c0-0.2,0.2-0.4,0.4-0.4l0,0h2c0.2,0,0.4,0.2,0.4,0.4
				S-41.9,41.5-42.1,41.5L-42.1,41.5z"/>
			<path class="st3" d="M-48.5,40c-0.2,0-0.4-0.2-0.4-0.4l0,0v-2c0-0.2,0.2-0.4,0.4-0.4c0.2,0,0.4,0.2,0.4,0.4v2
				C-48.1,39.8-48.3,40-48.5,40L-48.5,40z"/>
			<path class="st3" d="M-47.1,40c-0.2,0-0.4-0.2-0.4-0.4l0,0v-2.7c0-0.2,0.2-0.4,0.4-0.4c0.2,0,0.4,0.2,0.4,0.4l0,0v2.7
				C-46.6,39.8-46.8,40-47.1,40L-47.1,40L-47.1,40z"/>
			<path class="st3" d="M-45.6,40c-0.2,0-0.4-0.2-0.4-0.4l0,0v-2c0-0.2,0.2-0.4,0.4-0.4s0.4,0.2,0.4,0.4v2
				C-45.2,39.8-45.4,40-45.6,40L-45.6,40z"/>
			<path class="st3" d="M-48.5,47.9c-0.2,0-0.4-0.2-0.4-0.4l0,0v-2c0-0.2,0.2-0.4,0.4-0.4c0.2,0,0.4,0.2,0.4,0.4v2
				C-48.1,47.7-48.3,47.9-48.5,47.9L-48.5,47.9z"/>
			<path class="st3" d="M-47.1,48.6c-0.2,0-0.4-0.2-0.4-0.4l0,0v-2.7c0-0.2,0.2-0.4,0.4-0.4c0.2,0,0.4,0.2,0.4,0.4l0,0v2.7
				C-46.6,48.4-46.8,48.6-47.1,48.6L-47.1,48.6L-47.1,48.6z"/>
			<path class="st3" d="M-45.6,47.9c-0.2,0-0.4-0.2-0.4-0.4l0,0v-2c0-0.2,0.2-0.4,0.4-0.4s0.4,0.2,0.4,0.4v2
				C-45.2,47.7-45.4,47.9-45.6,47.9L-45.6,47.9z"/>
			<path class="st3" d="M-53.7,43.9c-0.8,0-1.4-0.6-1.4-1.4s0.6-1.4,1.4-1.4s1.4,0.6,1.4,1.4S-52.9,43.9-53.7,43.9z M-53.7,42
				c-0.3,0-0.5,0.2-0.5,0.5S-54,43-53.7,43s0.5-0.2,0.5-0.5S-53.4,42-53.7,42L-53.7,42z"/>
			<path class="st3" d="M-40.4,43.9c-0.8,0-1.4-0.6-1.4-1.4s0.6-1.4,1.4-1.4c0.8,0,1.4,0.6,1.4,1.4S-39.7,43.9-40.4,43.9z M-40.4,42
				c-0.3,0-0.5,0.2-0.5,0.5s0.2,0.5,0.5,0.5s0.5-0.2,0.5-0.5S-40.1,42-40.4,42z"/>
			<path class="st3" d="M-47.1,37.3c-0.8,0-1.4-0.6-1.4-1.4s0.6-1.4,1.4-1.4c0.8,0,1.4,0.6,1.4,1.4C-45.7,36.6-46.3,37.3-47.1,37.3
				L-47.1,37.3z M-47.1,35.3c-0.3,0-0.5,0.2-0.5,0.5s0.2,0.5,0.5,0.5s0.5-0.2,0.5-0.5S-46.8,35.3-47.1,35.3z"/>
			<path class="st3" d="M-47.1,50.6c-0.8,0-1.4-0.6-1.4-1.4s0.6-1.4,1.4-1.4c0.8,0,1.4,0.6,1.4,1.4C-45.7,49.9-46.3,50.6-47.1,50.6z
				 M-47.1,48.6c-0.3,0-0.5,0.2-0.5,0.5s0.2,0.5,0.5,0.5s0.5-0.2,0.5-0.5C-46.6,48.9-46.8,48.6-47.1,48.6z"/>
		</g>
	</g>
</g>
<path class="st5" d="M7,58.2c0.4-0.9,0.6-1.8,0.6-2.9c0-3.7-3-6.6-6.6-6.6s-6.6,3-6.6,6.6c0,1,0.2,2,0.6,2.9H7z"/>
<path class="st2" d="M-17.3,80.2v2.5c0,1.4,1.2,2.6,2.6,2.6h31.4c1.4,0,2.6-1.2,2.6-2.6v-2.5H-17.3z"/>
<path class="st6" d="M7.7,82.6H-5.8v-2.5H7.7V82.6z"/>
<path class="st1" d="M-16.3,59.7v20.5h34.6V59.7c0-0.8-0.7-1.5-1.5-1.5h-31.6C-15.7,58.2-16.3,58.8-16.3,59.7z"/>
<path class="st7" d="M-3.1,61.4h18.2v18.8h-28.2V61.4h3.3"/>
<path class="st3" d="M-6.5,62.1c-0.2,0-0.4-0.1-0.5-0.2c0,0-0.1-0.1-0.1-0.1c0,0-0.1-0.1-0.1-0.1c0,0,0-0.1,0-0.1c0,0,0-0.1,0-0.1
	c0,0,0-0.1,0-0.1c0,0,0-0.1,0-0.1c0,0,0-0.1,0.1-0.1c0,0,0.1-0.1,0.1-0.1c0.1-0.1,0.3-0.2,0.5-0.2c0.2,0,0.4,0.1,0.5,0.2
	c0,0,0.1,0.1,0.1,0.1c0,0,0,0.1,0.1,0.1c0,0,0,0.1,0,0.1c0,0,0,0.1,0,0.1c0,0,0,0.1,0,0.1c0,0,0,0.1,0,0.1c0,0,0,0.1-0.1,0.1
	c0,0-0.1,0.1-0.1,0.1C-6.1,62-6.3,62.1-6.5,62.1z"/>
<path class="st6" d="M-9.2,64.4h20.4v13.3H-9.2V64.4z"/>
<path class="st0" d="M-9.2,64.4h20.4V68H-9.2V64.4z"/>
<path class="st8" d="M-3.2,71.5C-3.5,71-4,70.7-4.6,70.7c-1.1,0-1.9,0.9-1.9,1.9c0,1.1,0.9,1.9,1.9,1.9c0.6,0,1.1-0.3,1.4-0.7"/>
<path class="st9" d="M0.3,72.6c0,1.1-0.9,1.9-1.9,1.9c-1.1,0-1.9-0.9-1.9-1.9c0-1.1,0.9-1.9,1.9-1.9C-0.6,70.7,0.3,71.6,0.3,72.6z"
	/>
<path class="st3" d="M8.5,72.2H5c-0.4,0-0.7-0.3-0.7-0.7c0-0.4,0.3-0.7,0.7-0.7h3.5c0.4,0,0.7,0.3,0.7,0.7
	C9.2,71.8,8.9,72.2,8.5,72.2z"/>
<path class="st3" d="M8.5,74.6H2.7c-0.4,0-0.7-0.3-0.7-0.7c0-0.4,0.3-0.7,0.7-0.7h5.7c0.4,0,0.7,0.3,0.7,0.7
	C9.2,74.3,8.9,74.6,8.5,74.6z"/>
<path class="st3" d="M19.3,79.4H19V59.7c0-1.2-1-2.3-2.3-2.3H8.1c0.2-0.7,0.3-1.4,0.3-2.1c0-4.1-3.3-7.4-7.4-7.4s-7.4,3.3-7.4,7.4
	c0,0.7,0.1,1.4,0.3,2.1h-8.7c-1.2,0-2.3,1-2.3,2.3v19.7h-0.3c-0.4,0-0.7,0.3-0.7,0.7v2.5c0,1.9,1.5,3.4,3.4,3.4h31.4
	c1.9,0,3.4-1.5,3.4-3.4v-2.5C20,79.7,19.7,79.4,19.3,79.4z M-4.9,55.3c0-3.2,2.6-5.9,5.9-5.9s5.9,2.6,5.9,5.9c0,0.7-0.1,1.4-0.4,2.1
	H3.9c0-0.1,0-0.2,0-0.3c0-0.7-0.3-1.3-0.8-1.8c0.5-0.5,0.8-1.1,0.8-1.8c0-0.5-0.1-1-0.4-1.4c-0.4-0.6-1.1-1-1.9-1l-0.2,0v-0.3
	c0-0.4-0.3-0.6-0.6-0.7c-0.2,0-0.3,0.1-0.5,0.2c-0.1,0.1-0.2,0.3-0.2,0.5v0.3h-1.4c-0.4,0-0.6,0.3-0.7,0.6c0,0.3,0.1,0.5,0.3,0.6
	v5.1h-2.9C-4.8,56.7-4.9,56-4.9,55.3z M1.5,55.9c0.6,0,1.2,0.5,1.2,1.2c0,0.1,0,0.2,0,0.3h-2.9v-1.5H1.5z M-0.3,54.7v-2.3h1.8
	c0.6,0,1.2,0.5,1.2,1.2c0,0.6-0.5,1.2-1.2,1.2H-0.3z M-15.6,59.7c0-0.4,0.3-0.8,0.8-0.8h31.6c0.4,0,0.8,0.3,0.8,0.8v19.7h-1.7v-18
	c0-0.4-0.3-0.7-0.7-0.7H-3.1c-0.4,0-0.7,0.3-0.7,0.7s0.3,0.7,0.7,0.7h17.5v17.3h-26.7V62.1h2.6c0.4,0,0.7-0.3,0.7-0.7
	s-0.3-0.7-0.7-0.7h-3.3c-0.4,0-0.7,0.3-0.7,0.7v18h-1.7V59.7z M-5,80.9H7v1H-5V80.9z M18.5,82.7c0,1-0.8,1.9-1.9,1.9h-31.4
	c-1,0-1.9-0.8-1.9-1.9v-1.8h10.1v1.7c0,0.4,0.3,0.7,0.7,0.7H7.7c0.4,0,0.7-0.3,0.7-0.7v-1.7h10.1V82.7z"/>
<path class="st3" d="M-10,64.4v13.3c0,0.4,0.3,0.7,0.7,0.7h20.4c0.4,0,0.7-0.3,0.7-0.7V64.4c0-0.4-0.3-0.7-0.7-0.7H-9.2
	C-9.6,63.6-10,63.9-10,64.4z M-8.5,77v-8.2h18.9V77H-8.5z M-8.5,65.1h18.9v2.2H-8.5V65.1z"/>
<path class="st3" d="M-1.6,70c-0.6,0-1.1,0.2-1.5,0.5C-3.6,70.2-4.1,70-4.6,70c-1.5,0-2.6,1.2-2.6,2.6c0,1.5,1.2,2.6,2.6,2.6
	c0.5,0,1-0.2,1.5-0.5c0.4,0.3,1,0.5,1.5,0.5c1.5,0,2.6-1.2,2.6-2.6S-0.1,70-1.6,70z M-5.8,72.6c0-0.6,0.5-1.2,1.2-1.2
	c0.2,0,0.4,0.1,0.5,0.2c-0.1,0.3-0.2,0.6-0.2,1c0,0.4,0.1,0.7,0.2,1c-0.2,0.1-0.3,0.2-0.5,0.2C-5.2,73.8-5.8,73.3-5.8,72.6z
	 M-1.6,73.8c-0.6,0-1.2-0.5-1.2-1.2c0-0.6,0.5-1.2,1.2-1.2c0.6,0,1.2,0.5,1.2,1.2C-0.4,73.3-1,73.8-1.6,73.8z"/>
<path class="st1" d="M34.8,1.2H5.3C4.3,1.2,3.5,2,3.5,3v3.5h33.1V3C36.6,2,35.8,1.2,34.8,1.2z"/>
<polygon class="st2" points="38.2,10.7 1.9,10.7 3.5,6.5 36.6,6.5 "/>
<path class="st4" d="M20,10.7v1.8c0,1.7-1.4,2.8-3,2.8l0,0c-1.7,0-3-1.1-3-2.8v-1.8H20z"/>
<path class="st0" d="M26.1,10.7v1.8c0,1.7-1.4,2.8-3,2.8l0,0c-1.7,0-3-1.1-3-2.8v-1.8H26.1z"/>
<path class="st4" d="M32.1,10.7v1.8c0,1.7-1.4,2.8-3,2.8l0,0c-1.7,0-3-1.1-3-2.8v-1.8H32.1z"/>
<path class="st0" d="M38.2,10.7v1.8c0,1.7-1.4,2.8-3,2.8l0,0c-1.7,0-3-1.1-3-2.8v-1.8H38.2z"/>
<path class="st4" d="M7.9,10.7v1.8c0,1.7-1.4,2.8-3,2.8l0,0c-1.7,0-3-1.1-3-2.8v-1.8H7.9z"/>
<path class="st0" d="M14,10.7v1.8c0,1.7-1.4,2.8-3,2.8l0,0c-1.7,0-3-1.1-3-2.8v-1.8H14z"/>
<path class="st1" d="M36.3,28.7l-1.8,1.8l3.7,3.7l-3.3,3.3l-3.7-3.7l-1.3,1.3l-2.4-8.9L36.3,28.7z"/>
<polygon class="st4" points="10.4,26.4 17.9,26.4 19,21.2 9.1,21.2 "/>
<path class="st3" d="M29.5,36.8H4.2V16C4.4,16,4.7,16,4.9,16c1.3,0,2.4-0.5,3-1.4c0.7,0.9,1.8,1.4,3,1.4s2.4-0.5,3-1.4
	c0.7,0.9,1.8,1.4,3,1.4s2.4-0.5,3-1.4c0.7,0.9,1.8,1.4,3,1.4s2.4-0.5,3-1.4c0.7,0.9,1.8,1.4,3,1.4c1.3,0,2.4-0.5,3-1.4
	c0.7,0.9,1.8,1.4,3,1.4c0.2,0,0.4,0,0.7-0.1v5.9c0,0.4,0.3,0.7,0.7,0.7s0.7-0.3,0.7-0.7v-6.4c1-0.6,1.6-1.7,1.6-3v-1.8c0,0,0,0,0,0
	c0-0.1,0-0.2-0.1-0.3l-1.6-4V3c0-1.4-1.1-2.5-2.5-2.5H5.3C3.9,0.5,2.8,1.6,2.8,3v3.4l-1.6,4c0,0.1-0.1,0.2-0.1,0.3c0,0,0,0,0,0v1.8
	c0,1.3,0.6,2.3,1.6,3v22.1c0,0.4,0.3,0.7,0.7,0.7h26c0.4,0,0.7-0.3,0.7-0.7C30.3,37.1,29.9,36.8,29.5,36.8z M11,14.6
	c-1.3,0-2.3-0.9-2.3-2.1v-1.1h4.6v1.1C13.2,13.7,12.3,14.6,11,14.6z M4,7.3h32.1l1,2.7H3L4,7.3z M17,14.6c-1.3,0-2.3-0.9-2.3-2.1
	v-1.1h4.6v1.1C19.3,13.7,18.3,14.6,17,14.6z M23.1,14.6c-1.3,0-2.3-0.9-2.3-2.1v-1.1h4.6v1.1C25.4,13.7,24.4,14.6,23.1,14.6z
	 M29.1,14.6c-1.3,0-2.3-0.9-2.3-2.1v-1.1h4.6v1.1C31.4,13.7,30.4,14.6,29.1,14.6z M37.5,12.5c0,1.2-1,2.1-2.3,2.1s-2.3-0.9-2.3-2.1
	v-1.1h4.6V12.5z M4.2,3c0-0.6,0.5-1,1-1h29.5c0.6,0,1,0.5,1,1v2.8H4.2C4.2,5.8,4.2,3,4.2,3z M2.6,11.4h4.6v1.1c0,1.2-1,2.1-2.3,2.1
	s-2.3-0.9-2.3-2.1C2.6,12.5,2.6,11.4,2.6,11.4z"/>
<path class="st3" d="M38.7,33.7l-3.2-3.2l1.3-1.3C37,29,37,28.7,37,28.5c-0.1-0.3-0.3-0.5-0.5-0.5l-8.9-2.4c-0.3-0.1-0.5,0-0.7,0.2
	c-0.2,0.2-0.3,0.5-0.2,0.7l2.4,8.9c0.1,0.3,0.3,0.5,0.5,0.5c0.3,0.1,0.5,0,0.7-0.2l0.8-0.8l3.2,3.2c0.1,0.1,0.3,0.2,0.5,0.2
	s0.4-0.1,0.5-0.2l3.3-3.3C39,34.4,39,34,38.7,33.7z M30.2,33.7l-1.7-6.4l6.4,1.7l-0.9,0.9l-3.3,3.3L30.2,33.7z M34.9,36.5l-2.7-2.7
	l2.3-2.3l2.7,2.7L34.9,36.5z"/>
<path class="st3" d="M26.2,24.8c0.3-0.3,0.3-0.8,0-1l-2.4-2.4c-0.3-0.3-0.8-0.3-1,0c-0.3,0.3-0.3,0.8,0,1l2.4,2.4
	c0.1,0.1,0.3,0.2,0.5,0.2S26.1,25,26.2,24.8z"/>
<path class="st3" d="M27.3,21.6v1.6c0,0.4,0.3,0.7,0.7,0.7c0.4,0,0.7-0.3,0.7-0.7v-1.6c0-0.4-0.3-0.7-0.7-0.7
	C27.6,20.8,27.3,21.2,27.3,21.6z"/>
<path class="st3" d="M24.6,25.9H23c-0.4,0-0.7,0.3-0.7,0.7c0,0.4,0.3,0.7,0.7,0.7h1.6c0.4,0,0.7-0.3,0.7-0.7
	C25.3,26.2,25,25.9,24.6,25.9z"/>
<path class="st3" d="M10.2,29c0.1,0.3,0.4,0.6,0.7,0.6h7.3c0.4,0,0.7-0.3,0.7-0.7c0-0.4-0.3-0.7-0.7-0.7h-6.7l-0.2-1h6.6
	c0.4,0,0.7-0.2,0.7-0.6l1-5.1c0-0.2,0-0.4-0.2-0.6c-0.1-0.2-0.4-0.3-0.6-0.3H9.6l-0.3-1.3c-0.1-0.3-0.4-0.6-0.7-0.6H6.7
	C6.3,18.6,6,19,6,19.4s0.3,0.7,0.7,0.7H8L10.2,29z M18.1,22l-0.7,3.7h-6.4L10,22H18.1z"/>
<path class="st3" d="M11,29.9c-0.1,0.1-0.2,0.3-0.2,0.5c0,0.2,0.1,0.4,0.2,0.5c0.1,0.1,0.3,0.2,0.5,0.2s0.4-0.1,0.5-0.2
	c0.1-0.1,0.2-0.3,0.2-0.5c0-0.2-0.1-0.4-0.2-0.5c-0.1-0.1-0.3-0.2-0.5-0.2S11.2,29.8,11,29.9z"/>
<path class="st3" d="M16.5,29.9c-0.1,0.1-0.2,0.3-0.2,0.5c0,0.2,0.1,0.4,0.2,0.5c0.1,0.1,0.3,0.2,0.5,0.2s0.4-0.1,0.5-0.2
	c0.1-0.1,0.2-0.3,0.2-0.5c0-0.2-0.1-0.4-0.2-0.5c-0.1-0.1-0.3-0.2-0.5-0.2S16.6,29.8,16.5,29.9z"/>
<path class="st3" d="M9.7,34.3H19c0.4,0,0.7-0.3,0.7-0.7s-0.3-0.7-0.7-0.7H9.7c-0.4,0-0.7,0.3-0.7,0.7S9.3,34.3,9.7,34.3z"/>
<path class="st3" d="M6.2,33c-0.1,0.1-0.2,0.3-0.2,0.5c0,0.2,0.1,0.4,0.2,0.5c0.1,0.1,0.3,0.2,0.5,0.2s0.4-0.1,0.5-0.2
	c0.1-0.1,0.2-0.3,0.2-0.5c0-0.2-0.1-0.4-0.2-0.5c-0.1-0.1-0.3-0.2-0.5-0.2C6.5,32.8,6.3,32.9,6.2,33z"/>
</svg>
