<?xml version="1.0" encoding="utf-8"?>
<!-- Generator: Adobe Illustrator 23.0.3, SVG Export Plug-In . SVG Version: 6.00 Build 0)  -->
<svg version="1.1" id="Hero" xmlns="http://www.w3.org/2000/svg" xmlns:xlink="http://www.w3.org/1999/xlink" x="0px" y="0px"
	 viewBox="0 0 41 38.8" style="enable-background:new 0 0 41 38.8;" xml:space="preserve">
<style type="text/css">
	.st0{fill:#DFFFDC;}
	.st1{fill:#D3E6F8;}
	.st2{fill:#A4CFF2;}
	.st3{fill:#4C4372;}
	.st4{fill:#FF5555;}
	.st5{fill:#FF3131;}
	.st6{fill:#C4E7EA;}
	.st7{fill:#EBF0F3;}
	.st8{fill:#E56353;}
	.st9{fill:#FBCF62;}
</style>
<g>
	<title>060 cpu 2</title>
	<g>
		<path class="st0" d="M-31.2,49.8c0,8.7-7,15.7-15.7,15.7c-8.7,0-15.7-7-15.7-15.7s7-15.7,15.7-15.7
			C-38.2,34.1-31.2,41.1-31.2,49.8z"/>
		<path class="st1" d="M-46.9,30.8c-5.5,0-10,4.5-10,10v12.1h3.4v4.3c0,1.7,1.3,3,3,3h3.4v8.5h10.2V40.8
			C-36.9,35.3-41.4,30.8-46.9,30.8L-46.9,30.8z"/>
		<path class="st2" d="M-46.9,30.8c-0.3,0-0.7,0-1,0.1c5,0.5,9,4.8,9,9.9v27.9h2V40.8C-36.9,35.3-41.4,30.8-46.9,30.8L-46.9,30.8z"
			/>
		<path class="st3" d="M-36.9,69.1h-10.2c-0.2,0-0.4-0.2-0.4-0.4l0,0v-8h-2.9c-1.9,0-3.4-1.5-3.4-3.4v-4h-3c-0.2,0-0.4-0.2-0.4-0.4
			l0,0V40.8c0-5.7,4.7-10.4,10.4-10.4c5.7,0,10.4,4.7,10.4,10.4v27.9C-36.5,68.9-36.7,69.1-36.9,69.1L-36.9,69.1z M-46.6,68.3h9.3
			V40.9c0-5.3-4.3-9.5-9.5-9.5c-5.3,0-9.5,4.3-9.5,9.5v11.6h3c0.2,0,0.4,0.2,0.4,0.4v4.3c0,1.4,1.1,2.6,2.6,2.6h3.4
			c0.2,0,0.4,0.2,0.4,0.4L-46.6,68.3L-46.6,68.3z"/>
		<path class="st4" d="M-45.3,45.5h-3.6c-0.6,0-1.2-0.5-1.2-1.2v-3.6c0-0.6,0.5-1.2,1.2-1.2h3.6c0.6,0,1.2,0.5,1.2,1.2v3.6
			C-44.1,45-44.6,45.5-45.3,45.5L-45.3,45.5z"/>
		<path class="st5" d="M-45.3,39.5h-0.4v5.9h0.4c0.6,0,1.2-0.5,1.2-1.2v-3.6C-44.1,40-44.6,39.5-45.3,39.5L-45.3,39.5z"/>
		<path class="st4" d="M-52.7,42.5c0,0.5-0.4,1-1,1c-0.5,0-1-0.4-1-1c0-0.5,0.4-1,1-1C-53.2,41.5-52.7,42-52.7,42.5z"/>
		<path class="st4" d="M-39.5,42.5c0,0.5-0.4,1-1,1c-0.5,0-1-0.4-1-1c0-0.5,0.4-1,1-1S-39.5,42-39.5,42.5z"/>
		<path class="st4" d="M-46.1,35.9c0,0.5-0.4,1-1,1c-0.5,0-1-0.4-1-1c0-0.5,0.4-1,1-1S-46.1,35.3-46.1,35.9L-46.1,35.9z"/>
		<path class="st4" d="M-46.1,49.1c0,0.5-0.4,1-1,1c-0.5,0-1-0.4-1-1c0-0.5,0.4-1,1-1C-46.5,48.2-46.1,48.6-46.1,49.1L-46.1,49.1z"
			/>
		<g>
			<path class="st3" d="M-45.3,45.9h-3.6c-0.9,0-1.6-0.7-1.6-1.6v-3.6c0-0.9,0.7-1.6,1.6-1.6h3.6c0.9,0,1.6,0.7,1.6,1.6v3.6
				C-43.7,45.2-44.4,45.9-45.3,45.9L-45.3,45.9z M-48.9,40c-0.4,0-0.7,0.3-0.7,0.7v3.6c0,0.4,0.3,0.7,0.7,0.7h3.6
				c0.4,0,0.7-0.3,0.7-0.7v-3.6c0-0.4-0.3-0.7-0.7-0.7H-48.9z"/>
			<path class="st3" d="M-50,44.4h-2c-0.2,0-0.4-0.2-0.4-0.4c0-0.2,0.2-0.4,0.4-0.4l0,0h2c0.2,0,0.4,0.2,0.4,0.4S-49.8,44.4-50,44.4
				L-50,44.4z"/>
			<path class="st3" d="M-50,42.9h-2.7c-0.2,0-0.4-0.2-0.5-0.4c0-0.2,0.2-0.4,0.4-0.5l0,0h2.7c0.2,0,0.4,0.2,0.4,0.4
				C-49.6,42.7-49.8,42.9-50,42.9L-50,42.9z"/>
			<path class="st3" d="M-50,41.5h-2c-0.2,0-0.4-0.2-0.4-0.4v-1.5c0-0.2,0.2-0.4,0.4-0.4s0.4,0.2,0.4,0.4v1.1h1.5
				c0.2,0,0.4,0.2,0.4,0.4C-49.6,41.3-49.8,41.5-50,41.5L-50,41.5L-50,41.5z"/>
			<path class="st3" d="M-42.1,45.9c-0.2,0-0.4-0.2-0.4-0.4l0,0v-1.1H-44c-0.2,0-0.4-0.2-0.4-0.4c0-0.2,0.2-0.4,0.4-0.4l0,0h2
				c0.2,0,0.4,0.2,0.4,0.4l0,0v1.5C-41.7,45.7-41.9,45.9-42.1,45.9z"/>
			<path class="st3" d="M-41.4,42.9h-2.7c-0.2,0-0.4-0.2-0.5-0.4c0-0.2,0.2-0.4,0.4-0.5l0,0h2.7c0.2,0,0.4,0.2,0.4,0.4
				C-41,42.7-41.2,42.9-41.4,42.9L-41.4,42.9z"/>
			<path class="st3" d="M-42.1,41.5h-2c-0.2,0-0.4-0.2-0.4-0.4c0-0.2,0.2-0.4,0.4-0.4l0,0h2c0.2,0,0.4,0.2,0.4,0.4
				S-41.9,41.5-42.1,41.5L-42.1,41.5z"/>
			<path class="st3" d="M-48.5,40c-0.2,0-0.4-0.2-0.4-0.4l0,0v-2c0-0.2,0.2-0.4,0.4-0.4c0.2,0,0.4,0.2,0.4,0.4v2
				C-48.1,39.8-48.3,40-48.5,40L-48.5,40z"/>
			<path class="st3" d="M-47.1,40c-0.2,0-0.4-0.2-0.4-0.4l0,0v-2.7c0-0.2,0.2-0.4,0.4-0.4c0.2,0,0.4,0.2,0.4,0.4l0,0v2.7
				C-46.6,39.8-46.8,40-47.1,40L-47.1,40L-47.1,40z"/>
			<path class="st3" d="M-45.6,40c-0.2,0-0.4-0.2-0.4-0.4l0,0v-2c0-0.2,0.2-0.4,0.4-0.4s0.4,0.2,0.4,0.4v2
				C-45.2,39.8-45.4,40-45.6,40L-45.6,40z"/>
			<path class="st3" d="M-48.5,47.9c-0.2,0-0.4-0.2-0.4-0.4l0,0v-2c0-0.2,0.2-0.4,0.4-0.4c0.2,0,0.4,0.2,0.4,0.4v2
				C-48.1,47.7-48.3,47.9-48.5,47.9L-48.5,47.9z"/>
			<path class="st3" d="M-47.1,48.6c-0.2,0-0.4-0.2-0.4-0.4l0,0v-2.7c0-0.2,0.2-0.4,0.4-0.4c0.2,0,0.4,0.2,0.4,0.4l0,0v2.7
				C-46.6,48.4-46.8,48.6-47.1,48.6L-47.1,48.6L-47.1,48.6z"/>
			<path class="st3" d="M-45.6,47.9c-0.2,0-0.4-0.2-0.4-0.4l0,0v-2c0-0.2,0.2-0.4,0.4-0.4s0.4,0.2,0.4,0.4v2
				C-45.2,47.7-45.4,47.9-45.6,47.9L-45.6,47.9z"/>
			<path class="st3" d="M-53.7,43.9c-0.8,0-1.4-0.6-1.4-1.4s0.6-1.4,1.4-1.4s1.4,0.6,1.4,1.4S-52.9,43.9-53.7,43.9z M-53.7,42
				c-0.3,0-0.5,0.2-0.5,0.5S-54,43-53.7,43s0.5-0.2,0.5-0.5S-53.4,42-53.7,42L-53.7,42z"/>
			<path class="st3" d="M-40.4,43.9c-0.8,0-1.4-0.6-1.4-1.4s0.6-1.4,1.4-1.4c0.8,0,1.4,0.6,1.4,1.4S-39.7,43.9-40.4,43.9z M-40.4,42
				c-0.3,0-0.5,0.2-0.5,0.5s0.2,0.5,0.5,0.5s0.5-0.2,0.5-0.5S-40.1,42-40.4,42z"/>
			<path class="st3" d="M-47.1,37.3c-0.8,0-1.4-0.6-1.4-1.4s0.6-1.4,1.4-1.4c0.8,0,1.4,0.6,1.4,1.4C-45.7,36.6-46.3,37.3-47.1,37.3
				L-47.1,37.3z M-47.1,35.3c-0.3,0-0.5,0.2-0.5,0.5s0.2,0.5,0.5,0.5s0.5-0.2,0.5-0.5S-46.8,35.3-47.1,35.3z"/>
			<path class="st3" d="M-47.1,50.6c-0.8,0-1.4-0.6-1.4-1.4s0.6-1.4,1.4-1.4c0.8,0,1.4,0.6,1.4,1.4C-45.7,49.9-46.3,50.6-47.1,50.6z
				 M-47.1,48.6c-0.3,0-0.5,0.2-0.5,0.5s0.2,0.5,0.5,0.5s0.5-0.2,0.5-0.5C-46.6,48.9-46.8,48.6-47.1,48.6z"/>
		</g>
	</g>
</g>
<path class="st5" d="M26.7,10.2c0.4-0.9,0.6-1.8,0.6-2.9c0-3.7-3-6.6-6.6-6.6s-6.6,3-6.6,6.6c0,1,0.2,2,0.6,2.9H26.7z"/>
<path class="st2" d="M2.4,32.2v2.5c0,1.4,1.2,2.6,2.6,2.6h31.4c1.4,0,2.6-1.2,2.6-2.6v-2.5H2.4z"/>
<path class="st6" d="M27.4,34.7H14v-2.5h13.5V34.7z"/>
<path class="st1" d="M3.4,11.7v20.5H38V11.7c0-0.8-0.7-1.5-1.5-1.5H4.9C4.1,10.2,3.4,10.9,3.4,11.7z"/>
<path class="st7" d="M16.6,13.4h18.2v18.8H6.6V13.4h3.3"/>
<path class="st3" d="M13.2,14.2c-0.2,0-0.4-0.1-0.5-0.2c0,0-0.1-0.1-0.1-0.1c0,0-0.1-0.1-0.1-0.1c0,0,0-0.1,0-0.1c0,0,0-0.1,0-0.1
	c0,0,0-0.1,0-0.1c0,0,0-0.1,0-0.1c0,0,0-0.1,0.1-0.1c0,0,0.1-0.1,0.1-0.1c0.1-0.1,0.3-0.2,0.5-0.2c0.2,0,0.4,0.1,0.5,0.2
	c0,0,0.1,0.1,0.1,0.1c0,0,0,0.1,0.1,0.1c0,0,0,0.1,0,0.1c0,0,0,0.1,0,0.1c0,0,0,0.1,0,0.1c0,0,0,0.1,0,0.1c0,0,0,0.1-0.1,0.1
	c0,0-0.1,0.1-0.1,0.1C13.6,14.1,13.4,14.2,13.2,14.2z"/>
<path class="st6" d="M10.5,16.4h20.4v13.3H10.5V16.4z"/>
<path class="st0" d="M10.5,16.4h20.4v3.7H10.5V16.4z"/>
<path class="st8" d="M16.6,23.5c-0.3-0.4-0.8-0.7-1.4-0.7c-1.1,0-1.9,0.9-1.9,1.9c0,1.1,0.9,1.9,1.9,1.9c0.6,0,1.1-0.3,1.4-0.7"/>
<path class="st9" d="M20,24.7c0,1.1-0.9,1.9-1.9,1.9c-1.1,0-1.9-0.9-1.9-1.9c0-1.1,0.9-1.9,1.9-1.9C19.2,22.8,20,23.7,20,24.7z"/>
<path class="st3" d="M28.2,24.2h-3.5c-0.4,0-0.7-0.3-0.7-0.7c0-0.4,0.3-0.7,0.7-0.7h3.5c0.4,0,0.7,0.3,0.7,0.7
	C28.9,23.9,28.6,24.2,28.2,24.2z"/>
<path class="st3" d="M28.2,26.7h-5.7c-0.4,0-0.7-0.3-0.7-0.7s0.3-0.7,0.7-0.7h5.7c0.4,0,0.7,0.3,0.7,0.7S28.6,26.7,28.2,26.7z"/>
<path class="st3" d="M39,31.5h-0.3V11.7c0-1.2-1-2.3-2.3-2.3h-8.7c0.2-0.7,0.3-1.4,0.3-2.1c0-4.1-3.3-7.4-7.4-7.4s-7.4,3.3-7.4,7.4
	c0,0.7,0.1,1.4,0.3,2.1H4.9c-1.2,0-2.3,1-2.3,2.3v19.7H2.4c-0.4,0-0.7,0.3-0.7,0.7v2.5c0,1.9,1.5,3.4,3.4,3.4h31.4
	c1.9,0,3.4-1.5,3.4-3.4v-2.5C39.8,31.8,39.4,31.5,39,31.5z M14.8,7.4c0-3.2,2.6-5.9,5.9-5.9s5.9,2.6,5.9,5.9c0,0.7-0.1,1.4-0.4,2.1
	h-2.6c0-0.1,0-0.2,0-0.3c0-0.7-0.3-1.3-0.8-1.8c0.5-0.5,0.8-1.1,0.8-1.8c0-0.5-0.1-1-0.4-1.4c-0.4-0.6-1.1-1-1.9-1l-0.2,0V2.8
	c0-0.4-0.3-0.6-0.6-0.7c-0.2,0-0.3,0.1-0.5,0.2c-0.1,0.1-0.2,0.3-0.2,0.5v0.3h-1.4c-0.4,0-0.6,0.3-0.7,0.6c0,0.3,0.1,0.5,0.3,0.6
	v5.1h-2.9C14.9,8.8,14.8,8.1,14.8,7.4z M21.2,8c0.6,0,1.2,0.5,1.2,1.2c0,0.1,0,0.2,0,0.3h-2.9V8H21.2z M19.4,6.7V4.4h1.8
	c0.6,0,1.2,0.5,1.2,1.2s-0.5,1.2-1.2,1.2H19.4z M4.2,11.7c0-0.4,0.3-0.8,0.8-0.8h31.6c0.4,0,0.8,0.3,0.8,0.8v19.7h-1.7v-18
	c0-0.4-0.3-0.7-0.7-0.7H16.6c-0.4,0-0.7,0.3-0.7,0.7s0.3,0.7,0.7,0.7h17.5v17.3H7.4V14.2h2.6c0.4,0,0.7-0.3,0.7-0.7
	s-0.3-0.7-0.7-0.7H6.6c-0.4,0-0.7,0.3-0.7,0.7v18H4.2V11.7z M14.7,33h12v1h-12V33z M38.3,34.8c0,1-0.8,1.9-1.9,1.9H5
	c-1,0-1.9-0.8-1.9-1.9V33h10.1v1.7c0,0.4,0.3,0.7,0.7,0.7h13.5c0.4,0,0.7-0.3,0.7-0.7V33h10.1V34.8z"/>
<path class="st3" d="M9.8,16.4v13.3c0,0.4,0.3,0.7,0.7,0.7h20.4c0.4,0,0.7-0.3,0.7-0.7V16.4c0-0.4-0.3-0.7-0.7-0.7H10.5
	C10.1,15.7,9.8,16,9.8,16.4z M11.3,29v-8.2h18.9V29H11.3z M11.3,17.2h18.9v2.2H11.3V17.2z"/>
<path class="st3" d="M18.1,22.1c-0.6,0-1.1,0.2-1.5,0.5c-0.4-0.3-0.9-0.5-1.5-0.5c-1.5,0-2.6,1.2-2.6,2.6c0,1.5,1.2,2.6,2.6,2.6
	c0.5,0,1-0.2,1.5-0.5c0.4,0.3,1,0.5,1.5,0.5c1.5,0,2.6-1.2,2.6-2.6S19.6,22.1,18.1,22.1z M14,24.7c0-0.6,0.5-1.2,1.2-1.2
	c0.2,0,0.4,0.1,0.5,0.2c-0.1,0.3-0.2,0.6-0.2,1c0,0.4,0.1,0.7,0.2,1c-0.2,0.1-0.3,0.2-0.5,0.2C14.5,25.9,14,25.3,14,24.7z
	 M18.1,25.9c-0.6,0-1.2-0.5-1.2-1.2c0-0.6,0.5-1.2,1.2-1.2c0.6,0,1.2,0.5,1.2,1.2C19.3,25.3,18.8,25.9,18.1,25.9z"/>
</svg>
