<?xml version="1.0" encoding="utf-8"?>
<!-- Generator: Adobe Illustrator 23.0.3, SVG Export Plug-In . SVG Version: 6.00 Build 0)  -->
<svg version="1.1" id="Hero" xmlns="http://www.w3.org/2000/svg" xmlns:xlink="http://www.w3.org/1999/xlink" x="0px" y="0px"
	 viewBox="0 0 41 38.8" style="enable-background:new 0 0 41 38.8;" xml:space="preserve">
<style type="text/css">
	.st0{fill:#DFFFDC;}
	.st1{fill:#D3E6F8;}
	.st2{fill:#A4CFF2;}
	.st3{fill:#4C4372;}
	.st4{fill:#FF5555;}
	.st5{fill:#FF3131;}
	.st6{fill:#C4E7EA;}
	.st7{fill:#EBF0F3;}
	.st8{fill:#E56353;}
	.st9{fill:#FBCF62;}
	.st10{fill:#C7EFC2;}
	.st11{fill:#FFFFFF;}
	.st12{fill:#FFD36C;}
	.st13{fill:#CBE6F7;}
</style>
<g>
	<title>060 cpu 2</title>
	<g>
		<path class="st0" d="M-31.2,49.8c0,8.7-7,15.7-15.7,15.7c-8.7,0-15.7-7-15.7-15.7s7-15.7,15.7-15.7
			C-38.2,34.1-31.2,41.1-31.2,49.8z"/>
		<path class="st1" d="M-46.9,30.8c-5.5,0-10,4.5-10,10v12.1h3.4v4.3c0,1.7,1.3,3,3,3h3.4v8.5h10.2V40.8
			C-36.9,35.3-41.4,30.8-46.9,30.8L-46.9,30.8z"/>
		<path class="st2" d="M-46.9,30.8c-0.3,0-0.7,0-1,0.1c5,0.5,9,4.8,9,9.9v27.9h2V40.8C-36.9,35.3-41.4,30.8-46.9,30.8L-46.9,30.8z"
			/>
		<path class="st3" d="M-36.9,69.1h-10.2c-0.2,0-0.4-0.2-0.4-0.4l0,0v-8h-2.9c-1.9,0-3.4-1.5-3.4-3.4v-4h-3c-0.2,0-0.4-0.2-0.4-0.4
			l0,0V40.8c0-5.7,4.7-10.4,10.4-10.4c5.7,0,10.4,4.7,10.4,10.4v27.9C-36.5,68.9-36.7,69.1-36.9,69.1L-36.9,69.1z M-46.6,68.3h9.3
			V40.9c0-5.3-4.3-9.5-9.5-9.5c-5.3,0-9.5,4.3-9.5,9.5v11.6h3c0.2,0,0.4,0.2,0.4,0.4v4.3c0,1.4,1.1,2.6,2.6,2.6h3.4
			c0.2,0,0.4,0.2,0.4,0.4L-46.6,68.3L-46.6,68.3z"/>
		<path class="st4" d="M-45.3,45.5h-3.6c-0.6,0-1.2-0.5-1.2-1.2v-3.6c0-0.6,0.5-1.2,1.2-1.2h3.6c0.6,0,1.2,0.5,1.2,1.2v3.6
			C-44.1,45-44.6,45.5-45.3,45.5L-45.3,45.5z"/>
		<path class="st5" d="M-45.3,39.5h-0.4v5.9h0.4c0.6,0,1.2-0.5,1.2-1.2v-3.6C-44.1,40-44.6,39.5-45.3,39.5L-45.3,39.5z"/>
		<path class="st4" d="M-52.7,42.5c0,0.5-0.4,1-1,1c-0.5,0-1-0.4-1-1c0-0.5,0.4-1,1-1C-53.2,41.5-52.7,42-52.7,42.5z"/>
		<path class="st4" d="M-39.5,42.5c0,0.5-0.4,1-1,1c-0.5,0-1-0.4-1-1c0-0.5,0.4-1,1-1S-39.5,42-39.5,42.5z"/>
		<path class="st4" d="M-46.1,35.9c0,0.5-0.4,1-1,1c-0.5,0-1-0.4-1-1c0-0.5,0.4-1,1-1S-46.1,35.3-46.1,35.9L-46.1,35.9z"/>
		<path class="st4" d="M-46.1,49.1c0,0.5-0.4,1-1,1c-0.5,0-1-0.4-1-1c0-0.5,0.4-1,1-1C-46.5,48.2-46.1,48.6-46.1,49.1L-46.1,49.1z"
			/>
		<g>
			<path class="st3" d="M-45.3,45.9h-3.6c-0.9,0-1.6-0.7-1.6-1.6v-3.6c0-0.9,0.7-1.6,1.6-1.6h3.6c0.9,0,1.6,0.7,1.6,1.6v3.6
				C-43.7,45.2-44.4,45.9-45.3,45.9L-45.3,45.9z M-48.9,40c-0.4,0-0.7,0.3-0.7,0.7v3.6c0,0.4,0.3,0.7,0.7,0.7h3.6
				c0.4,0,0.7-0.3,0.7-0.7v-3.6c0-0.4-0.3-0.7-0.7-0.7H-48.9z"/>
			<path class="st3" d="M-50,44.4h-2c-0.2,0-0.4-0.2-0.4-0.4c0-0.2,0.2-0.4,0.4-0.4l0,0h2c0.2,0,0.4,0.2,0.4,0.4S-49.8,44.4-50,44.4
				L-50,44.4z"/>
			<path class="st3" d="M-50,42.9h-2.7c-0.2,0-0.4-0.2-0.5-0.4c0-0.2,0.2-0.4,0.4-0.5l0,0h2.7c0.2,0,0.4,0.2,0.4,0.4
				C-49.6,42.7-49.8,42.9-50,42.9L-50,42.9z"/>
			<path class="st3" d="M-50,41.5h-2c-0.2,0-0.4-0.2-0.4-0.4v-1.5c0-0.2,0.2-0.4,0.4-0.4s0.4,0.2,0.4,0.4v1.1h1.5
				c0.2,0,0.4,0.2,0.4,0.4C-49.6,41.3-49.8,41.5-50,41.5L-50,41.5L-50,41.5z"/>
			<path class="st3" d="M-42.1,45.9c-0.2,0-0.4-0.2-0.4-0.4l0,0v-1.1H-44c-0.2,0-0.4-0.2-0.4-0.4c0-0.2,0.2-0.4,0.4-0.4l0,0h2
				c0.2,0,0.4,0.2,0.4,0.4l0,0v1.5C-41.7,45.7-41.9,45.9-42.1,45.9z"/>
			<path class="st3" d="M-41.4,42.9h-2.7c-0.2,0-0.4-0.2-0.5-0.4c0-0.2,0.2-0.4,0.4-0.5l0,0h2.7c0.2,0,0.4,0.2,0.4,0.4
				C-41,42.7-41.2,42.9-41.4,42.9L-41.4,42.9z"/>
			<path class="st3" d="M-42.1,41.5h-2c-0.2,0-0.4-0.2-0.4-0.4c0-0.2,0.2-0.4,0.4-0.4l0,0h2c0.2,0,0.4,0.2,0.4,0.4
				S-41.9,41.5-42.1,41.5L-42.1,41.5z"/>
			<path class="st3" d="M-48.5,40c-0.2,0-0.4-0.2-0.4-0.4l0,0v-2c0-0.2,0.2-0.4,0.4-0.4c0.2,0,0.4,0.2,0.4,0.4v2
				C-48.1,39.8-48.3,40-48.5,40L-48.5,40z"/>
			<path class="st3" d="M-47.1,40c-0.2,0-0.4-0.2-0.4-0.4l0,0v-2.7c0-0.2,0.2-0.4,0.4-0.4c0.2,0,0.4,0.2,0.4,0.4l0,0v2.7
				C-46.6,39.8-46.8,40-47.1,40L-47.1,40L-47.1,40z"/>
			<path class="st3" d="M-45.6,40c-0.2,0-0.4-0.2-0.4-0.4l0,0v-2c0-0.2,0.2-0.4,0.4-0.4s0.4,0.2,0.4,0.4v2
				C-45.2,39.8-45.4,40-45.6,40L-45.6,40z"/>
			<path class="st3" d="M-48.5,47.9c-0.2,0-0.4-0.2-0.4-0.4l0,0v-2c0-0.2,0.2-0.4,0.4-0.4c0.2,0,0.4,0.2,0.4,0.4v2
				C-48.1,47.7-48.3,47.9-48.5,47.9L-48.5,47.9z"/>
			<path class="st3" d="M-47.1,48.6c-0.2,0-0.4-0.2-0.4-0.4l0,0v-2.7c0-0.2,0.2-0.4,0.4-0.4c0.2,0,0.4,0.2,0.4,0.4l0,0v2.7
				C-46.6,48.4-46.8,48.6-47.1,48.6L-47.1,48.6L-47.1,48.6z"/>
			<path class="st3" d="M-45.6,47.9c-0.2,0-0.4-0.2-0.4-0.4l0,0v-2c0-0.2,0.2-0.4,0.4-0.4s0.4,0.2,0.4,0.4v2
				C-45.2,47.7-45.4,47.9-45.6,47.9L-45.6,47.9z"/>
			<path class="st3" d="M-53.7,43.9c-0.8,0-1.4-0.6-1.4-1.4s0.6-1.4,1.4-1.4s1.4,0.6,1.4,1.4S-52.9,43.9-53.7,43.9z M-53.7,42
				c-0.3,0-0.5,0.2-0.5,0.5S-54,43-53.7,43s0.5-0.2,0.5-0.5S-53.4,42-53.7,42L-53.7,42z"/>
			<path class="st3" d="M-40.4,43.9c-0.8,0-1.4-0.6-1.4-1.4s0.6-1.4,1.4-1.4c0.8,0,1.4,0.6,1.4,1.4S-39.7,43.9-40.4,43.9z M-40.4,42
				c-0.3,0-0.5,0.2-0.5,0.5s0.2,0.5,0.5,0.5s0.5-0.2,0.5-0.5S-40.1,42-40.4,42z"/>
			<path class="st3" d="M-47.1,37.3c-0.8,0-1.4-0.6-1.4-1.4s0.6-1.4,1.4-1.4c0.8,0,1.4,0.6,1.4,1.4C-45.7,36.6-46.3,37.3-47.1,37.3
				L-47.1,37.3z M-47.1,35.3c-0.3,0-0.5,0.2-0.5,0.5s0.2,0.5,0.5,0.5s0.5-0.2,0.5-0.5S-46.8,35.3-47.1,35.3z"/>
			<path class="st3" d="M-47.1,50.6c-0.8,0-1.4-0.6-1.4-1.4s0.6-1.4,1.4-1.4c0.8,0,1.4,0.6,1.4,1.4C-45.7,49.9-46.3,50.6-47.1,50.6z
				 M-47.1,48.6c-0.3,0-0.5,0.2-0.5,0.5s0.2,0.5,0.5,0.5s0.5-0.2,0.5-0.5C-46.6,48.9-46.8,48.6-47.1,48.6z"/>
		</g>
	</g>
</g>
<path class="st5" d="M7,58.2c0.4-0.9,0.6-1.8,0.6-2.9c0-3.7-3-6.6-6.6-6.6s-6.6,3-6.6,6.6c0,1,0.2,2,0.6,2.9H7z"/>
<path class="st2" d="M-17.3,80.2v2.5c0,1.4,1.2,2.6,2.6,2.6h31.4c1.4,0,2.6-1.2,2.6-2.6v-2.5H-17.3z"/>
<path class="st6" d="M7.7,82.6H-5.8v-2.5H7.7V82.6z"/>
<path class="st1" d="M-16.3,59.7v20.5h34.6V59.7c0-0.8-0.7-1.5-1.5-1.5h-31.6C-15.7,58.2-16.3,58.8-16.3,59.7z"/>
<path class="st7" d="M-3.1,61.4h18.2v18.8h-28.2V61.4h3.3"/>
<path class="st3" d="M-6.5,62.1c-0.2,0-0.4-0.1-0.5-0.2c0,0-0.1-0.1-0.1-0.1c0,0-0.1-0.1-0.1-0.1c0,0,0-0.1,0-0.1c0,0,0-0.1,0-0.1
	c0,0,0-0.1,0-0.1c0,0,0-0.1,0-0.1c0,0,0-0.1,0.1-0.1c0,0,0.1-0.1,0.1-0.1c0.1-0.1,0.3-0.2,0.5-0.2c0.2,0,0.4,0.1,0.5,0.2
	c0,0,0.1,0.1,0.1,0.1c0,0,0,0.1,0.1,0.1c0,0,0,0.1,0,0.1c0,0,0,0.1,0,0.1c0,0,0,0.1,0,0.1c0,0,0,0.1,0,0.1c0,0,0,0.1-0.1,0.1
	c0,0-0.1,0.1-0.1,0.1C-6.1,62-6.3,62.1-6.5,62.1z"/>
<path class="st6" d="M-9.2,64.4h20.4v13.3H-9.2V64.4z"/>
<path class="st0" d="M-9.2,64.4h20.4V68H-9.2V64.4z"/>
<path class="st8" d="M-3.2,71.5C-3.5,71-4,70.7-4.6,70.7c-1.1,0-1.9,0.9-1.9,1.9c0,1.1,0.9,1.9,1.9,1.9c0.6,0,1.1-0.3,1.4-0.7"/>
<path class="st9" d="M0.3,72.6c0,1.1-0.9,1.9-1.9,1.9c-1.1,0-1.9-0.9-1.9-1.9c0-1.1,0.9-1.9,1.9-1.9C-0.6,70.7,0.3,71.6,0.3,72.6z"
	/>
<path class="st3" d="M8.5,72.2H5c-0.4,0-0.7-0.3-0.7-0.7c0-0.4,0.3-0.7,0.7-0.7h3.5c0.4,0,0.7,0.3,0.7,0.7
	C9.2,71.8,8.9,72.2,8.5,72.2z"/>
<path class="st3" d="M8.5,74.6H2.7c-0.4,0-0.7-0.3-0.7-0.7c0-0.4,0.3-0.7,0.7-0.7h5.7c0.4,0,0.7,0.3,0.7,0.7
	C9.2,74.3,8.9,74.6,8.5,74.6z"/>
<path class="st3" d="M19.3,79.4H19V59.7c0-1.2-1-2.3-2.3-2.3H8.1c0.2-0.7,0.3-1.4,0.3-2.1c0-4.1-3.3-7.4-7.4-7.4s-7.4,3.3-7.4,7.4
	c0,0.7,0.1,1.4,0.3,2.1h-8.7c-1.2,0-2.3,1-2.3,2.3v19.7h-0.3c-0.4,0-0.7,0.3-0.7,0.7v2.5c0,1.9,1.5,3.4,3.4,3.4h31.4
	c1.9,0,3.4-1.5,3.4-3.4v-2.5C20,79.7,19.7,79.4,19.3,79.4z M-4.9,55.3c0-3.2,2.6-5.9,5.9-5.9s5.9,2.6,5.9,5.9c0,0.7-0.1,1.4-0.4,2.1
	H3.9c0-0.1,0-0.2,0-0.3c0-0.7-0.3-1.3-0.8-1.8c0.5-0.5,0.8-1.1,0.8-1.8c0-0.5-0.1-1-0.4-1.4c-0.4-0.6-1.1-1-1.9-1l-0.2,0v-0.3
	c0-0.4-0.3-0.6-0.6-0.7c-0.2,0-0.3,0.1-0.5,0.2c-0.1,0.1-0.2,0.3-0.2,0.5v0.3h-1.4c-0.4,0-0.6,0.3-0.7,0.6c0,0.3,0.1,0.5,0.3,0.6
	v5.1h-2.9C-4.8,56.7-4.9,56-4.9,55.3z M1.5,55.9c0.6,0,1.2,0.5,1.2,1.2c0,0.1,0,0.2,0,0.3h-2.9v-1.5H1.5z M-0.3,54.7v-2.3h1.8
	c0.6,0,1.2,0.5,1.2,1.2c0,0.6-0.5,1.2-1.2,1.2H-0.3z M-15.6,59.7c0-0.4,0.3-0.8,0.8-0.8h31.6c0.4,0,0.8,0.3,0.8,0.8v19.7h-1.7v-18
	c0-0.4-0.3-0.7-0.7-0.7H-3.1c-0.4,0-0.7,0.3-0.7,0.7s0.3,0.7,0.7,0.7h17.5v17.3h-26.7V62.1h2.6c0.4,0,0.7-0.3,0.7-0.7
	s-0.3-0.7-0.7-0.7h-3.3c-0.4,0-0.7,0.3-0.7,0.7v18h-1.7V59.7z M-5,80.9H7v1H-5V80.9z M18.5,82.7c0,1-0.8,1.9-1.9,1.9h-31.4
	c-1,0-1.9-0.8-1.9-1.9v-1.8h10.1v1.7c0,0.4,0.3,0.7,0.7,0.7H7.7c0.4,0,0.7-0.3,0.7-0.7v-1.7h10.1V82.7z"/>
<path class="st3" d="M-10,64.4v13.3c0,0.4,0.3,0.7,0.7,0.7h20.4c0.4,0,0.7-0.3,0.7-0.7V64.4c0-0.4-0.3-0.7-0.7-0.7H-9.2
	C-9.6,63.6-10,63.9-10,64.4z M-8.5,77v-8.2h18.9V77H-8.5z M-8.5,65.1h18.9v2.2H-8.5V65.1z"/>
<path class="st3" d="M-1.6,70c-0.6,0-1.1,0.2-1.5,0.5C-3.6,70.2-4.1,70-4.6,70c-1.5,0-2.6,1.2-2.6,2.6c0,1.5,1.2,2.6,2.6,2.6
	c0.5,0,1-0.2,1.5-0.5c0.4,0.3,1,0.5,1.5,0.5c1.5,0,2.6-1.2,2.6-2.6S-0.1,70-1.6,70z M-5.8,72.6c0-0.6,0.5-1.2,1.2-1.2
	c0.2,0,0.4,0.1,0.5,0.2c-0.1,0.3-0.2,0.6-0.2,1c0,0.4,0.1,0.7,0.2,1c-0.2,0.1-0.3,0.2-0.5,0.2C-5.2,73.8-5.8,73.3-5.8,72.6z
	 M-1.6,73.8c-0.6,0-1.2-0.5-1.2-1.2c0-0.6,0.5-1.2,1.2-1.2c0.6,0,1.2,0.5,1.2,1.2C-0.4,73.3-1,73.8-1.6,73.8z"/>
<path class="st1" d="M90.5,41.9H60.9c-1,0-1.8,0.8-1.8,1.8v3.5h33.1v-3.5C92.2,42.7,91.4,41.9,90.5,41.9z"/>
<polygon class="st2" points="93.9,51.3 57.5,51.3 59.2,47.2 92.2,47.2 "/>
<path class="st4" d="M75.7,51.3v1.8c0,1.7-1.4,2.8-3,2.8l0,0c-1.7,0-3-1.1-3-2.8v-1.8H75.7z"/>
<path class="st0" d="M81.8,51.3v1.8c0,1.7-1.4,2.8-3,2.8l0,0c-1.7,0-3-1.1-3-2.8v-1.8H81.8z"/>
<path class="st4" d="M87.8,51.3v1.8c0,1.7-1.4,2.8-3,2.8l0,0c-1.7,0-3-1.1-3-2.8v-1.8H87.8z"/>
<path class="st0" d="M93.9,51.3v1.8c0,1.7-1.4,2.8-3,2.8l0,0c-1.7,0-3-1.1-3-2.8v-1.8H93.9z"/>
<path class="st4" d="M63.6,51.3v1.8c0,1.7-1.4,2.8-3,2.8l0,0c-1.7,0-3-1.1-3-2.8v-1.8H63.6z"/>
<path class="st0" d="M69.6,51.3v1.8c0,1.7-1.4,2.8-3,2.8l0,0c-1.7,0-3-1.1-3-2.8v-1.8H69.6z"/>
<path class="st1" d="M91.9,69.3l-1.8,1.8l3.7,3.7l-3.3,3.3l-3.7-3.7l-1.3,1.3l-2.4-8.9L91.9,69.3z"/>
<polygon class="st4" points="66,67 73.6,67 74.6,61.9 64.8,61.9 "/>
<path class="st3" d="M85.2,77.5H59.9V56.7c0.2,0,0.4,0.1,0.7,0.1c1.3,0,2.4-0.5,3-1.4c0.7,0.9,1.8,1.4,3,1.4c1.3,0,2.4-0.5,3-1.4
	c0.7,0.9,1.8,1.4,3,1.4c1.3,0,2.4-0.5,3-1.4c0.7,0.9,1.8,1.4,3,1.4s2.4-0.5,3-1.4c0.7,0.9,1.8,1.4,3,1.4s2.4-0.5,3-1.4
	c0.7,0.9,1.8,1.4,3,1.4c0.2,0,0.4,0,0.7-0.1v5.9c0,0.4,0.3,0.7,0.7,0.7c0.4,0,0.7-0.3,0.7-0.7v-6.4c1-0.6,1.6-1.7,1.6-3v-1.8
	c0,0,0,0,0,0c0-0.1,0-0.2-0.1-0.3L93,47v-3.4c0-1.4-1.1-2.5-2.5-2.5H60.9c-1.4,0-2.5,1.1-2.5,2.5V47l-1.6,4c0,0.1-0.1,0.2-0.1,0.3
	c0,0,0,0,0,0v1.8c0,1.3,0.6,2.3,1.6,3v22.1c0,0.4,0.3,0.7,0.7,0.7h26c0.4,0,0.7-0.3,0.7-0.7C85.9,77.8,85.6,77.5,85.2,77.5z
	 M66.6,55.2c-1.3,0-2.3-0.9-2.3-2.1v-1.1h4.6v1.1C68.9,54.4,67.9,55.2,66.6,55.2z M59.7,47.9h32.1l1,2.7H58.6L59.7,47.9z M72.7,55.2
	c-1.3,0-2.3-0.9-2.3-2.1v-1.1H75v1.1C75,54.4,74,55.2,72.7,55.2z M78.7,55.2c-1.3,0-2.3-0.9-2.3-2.1v-1.1H81v1.1
	C81,54.4,80.1,55.2,78.7,55.2z M84.8,55.2c-1.3,0-2.3-0.9-2.3-2.1v-1.1h4.6v1.1C87.1,54.4,86.1,55.2,84.8,55.2z M93.1,53.2
	c0,1.2-1,2.1-2.3,2.1c-1.3,0-2.3-0.9-2.3-2.1v-1.1h4.6V53.2z M59.9,43.6c0-0.6,0.5-1,1-1h29.5c0.6,0,1,0.5,1,1v2.8H59.9
	C59.9,46.4,59.9,43.6,59.9,43.6z M58.3,52.1h4.6v1.1c0,1.2-1,2.1-2.3,2.1c-1.3,0-2.3-0.9-2.3-2.1C58.3,53.2,58.3,52.1,58.3,52.1z"/>
<path class="st3" d="M94.4,74.3l-3.2-3.2l1.3-1.3c0.2-0.2,0.3-0.5,0.2-0.7c-0.1-0.3-0.3-0.5-0.5-0.5l-8.9-2.4
	c-0.3-0.1-0.5,0-0.7,0.2c-0.2,0.2-0.3,0.5-0.2,0.7l2.4,8.9c0.1,0.3,0.3,0.5,0.5,0.5c0.3,0.1,0.5,0,0.7-0.2l0.8-0.8l3.2,3.2
	c0.1,0.1,0.3,0.2,0.5,0.2s0.4-0.1,0.5-0.2l3.3-3.3C94.7,75.1,94.7,74.6,94.4,74.3z M85.8,74.4L84.1,68l6.4,1.7l-0.9,0.9l-3.3,3.3
	L85.8,74.4z M90.5,77.2l-2.7-2.7l2.3-2.3l2.7,2.7L90.5,77.2z"/>
<path class="st3" d="M81.9,65.5c0.3-0.3,0.3-0.8,0-1L79.5,62c-0.3-0.3-0.8-0.3-1,0c-0.3,0.3-0.3,0.8,0,1l2.4,2.4
	c0.1,0.1,0.3,0.2,0.5,0.2S81.7,65.6,81.9,65.5z"/>
<path class="st3" d="M82.9,62.2v1.6c0,0.4,0.3,0.7,0.7,0.7s0.7-0.3,0.7-0.7v-1.6c0-0.4-0.3-0.7-0.7-0.7S82.9,61.8,82.9,62.2z"/>
<path class="st3" d="M80.2,66.5h-1.6c-0.4,0-0.7,0.3-0.7,0.7c0,0.4,0.3,0.7,0.7,0.7h1.6c0.4,0,0.7-0.3,0.7-0.7
	C81,66.9,80.6,66.5,80.2,66.5z"/>
<path class="st3" d="M65.9,69.7c0.1,0.3,0.4,0.6,0.7,0.6h7.3c0.4,0,0.7-0.3,0.7-0.7c0-0.4-0.3-0.7-0.7-0.7h-6.7l-0.2-1h6.6
	c0.4,0,0.7-0.2,0.7-0.6l1-5.1c0-0.2,0-0.4-0.2-0.6c-0.1-0.2-0.4-0.3-0.6-0.3h-9.3L65,59.9c-0.1-0.3-0.4-0.6-0.7-0.6h-1.9
	c-0.4,0-0.7,0.3-0.7,0.7c0,0.4,0.3,0.7,0.7,0.7h1.3L65.9,69.7z M73.7,62.6L73,66.3h-6.4l-0.9-3.7H73.7z"/>
<path class="st3" d="M66.7,70.6c-0.1,0.1-0.2,0.3-0.2,0.5c0,0.2,0.1,0.4,0.2,0.5c0.1,0.1,0.3,0.2,0.5,0.2s0.4-0.1,0.5-0.2
	c0.1-0.1,0.2-0.3,0.2-0.5c0-0.2-0.1-0.4-0.2-0.5c-0.1-0.1-0.3-0.2-0.5-0.2S66.8,70.5,66.7,70.6z"/>
<path class="st3" d="M72.1,70.6c-0.1,0.1-0.2,0.3-0.2,0.5c0,0.2,0.1,0.4,0.2,0.5c0.1,0.1,0.3,0.2,0.5,0.2s0.4-0.1,0.5-0.2
	c0.1-0.1,0.2-0.3,0.2-0.5c0-0.2-0.1-0.4-0.2-0.5c-0.1-0.1-0.3-0.2-0.5-0.2S72.3,70.5,72.1,70.6z"/>
<path class="st3" d="M65.4,75h9.3c0.4,0,0.7-0.3,0.7-0.7c0-0.4-0.3-0.7-0.7-0.7h-9.3c-0.4,0-0.7,0.3-0.7,0.7
	C64.6,74.6,64.9,75,65.4,75z"/>
<path class="st3" d="M61.8,73.7c-0.1,0.1-0.2,0.3-0.2,0.5c0,0.2,0.1,0.4,0.2,0.5c0.1,0.1,0.3,0.2,0.5,0.2c0.2,0,0.4-0.1,0.5-0.2
	c0.1-0.1,0.2-0.3,0.2-0.5c0-0.2-0.1-0.4-0.2-0.5c-0.1-0.1-0.3-0.2-0.5-0.2C62.1,73.5,62,73.6,61.8,73.7z"/>
<path class="st10" d="M-80.6-9.6h11.5c1.1,0,2.1-0.9,2.1-2.1v-29.5c0-1.1-0.9-2.1-2.1-2.1h-11.5"/>
<path class="st0" d="M-69.9-24.1v-14c-1.3,0-2.3-1-2.3-2.3h-11.1c0,1.3-1,2.3-2.3,2.3v23.4c1.3,0,2.3,1,2.3,2.3h11.1
	c0-1.3,1-2.3,2.3-2.3v-2.2"/>
<path class="st3" d="M-69.9-19.9c0,0-0.1,0-0.1,0c0,0-0.1,0-0.1,0c0,0-0.1,0-0.1-0.1c0,0-0.1-0.1-0.1-0.1c0,0-0.1-0.1-0.1-0.1
	c0,0,0-0.1-0.1-0.1c0,0,0-0.1,0-0.1c0,0,0-0.1,0-0.1c0,0,0-0.1,0-0.1c0,0,0-0.1,0-0.1c0,0,0-0.1,0.1-0.1c0,0,0.1-0.1,0.1-0.1
	c0,0,0.1-0.1,0.1-0.1c0,0,0.1-0.1,0.1-0.1c0,0,0.1,0,0.1,0c0.1,0,0.2,0,0.3,0c0,0,0.1,0,0.1,0c0,0,0.1,0,0.1,0.1
	c0,0,0.1,0.1,0.1,0.1c0,0,0.1,0.1,0.1,0.1c0,0,0.1,0.1,0.1,0.1c0,0,0,0.1,0,0.1c0,0,0,0.1,0,0.1c0,0,0,0.1,0,0.1c0,0,0,0.1,0,0.1
	c0,0,0,0.1-0.1,0.1c0,0-0.1,0.1-0.1,0.1c0,0-0.1,0.1-0.1,0.1c0,0-0.1,0-0.1,0.1c0,0-0.1,0-0.1,0C-69.8-19.9-69.8-19.9-69.9-19.9z"/>
<path class="st3" d="M-75.7-14.7c-0.4,0-0.7-0.3-0.7-0.7V-21c0-0.4,0.3-0.7,0.7-0.7s0.7,0.3,0.7,0.7v5.6
	C-74.9-15-75.2-14.7-75.7-14.7z"/>
<path class="st3" d="M-75.7-33.3c-0.4,0-0.7-0.3-0.7-0.7v-3.4c0-0.4,0.3-0.7,0.7-0.7s0.7,0.3,0.7,0.7v3.4
	C-74.9-33.6-75.2-33.3-75.7-33.3z"/>
<path class="st11" d="M-100.7-14.2h21v1.8c0,2.3-1.9,4.2-4.2,4.2h-12.6c-2.3,0-4.2-1.9-4.2-4.2V-14.2z"/>
<path class="st1" d="M-79.7-14.2h-21v-25.6h21"/>
<path class="st12" d="M-77.7-29.8c-0.8,0-1.5,0.3-2,0.7v5.4c0.6,0.4,1.3,0.7,2,0.7c1.9,0,3.4-1.5,3.4-3.4S-75.8-29.8-77.7-29.8z"/>
<path class="st11" d="M-79.7-39.8h-21v-0.8c0-2.3,1.9-4.2,4.2-4.2H-84c2.3,0,4.2,1.9,4.2,4.2L-79.7-39.8L-79.7-39.8z"/>
<path class="st3" d="M-89.5-10.4H-91c-0.4,0-0.7-0.3-0.7-0.7s0.3-0.7,0.7-0.7h1.5c0.4,0,0.7,0.3,0.7,0.7S-89.1-10.4-89.5-10.4z"/>
<path class="st3" d="M-85.1-41.6c0,0-0.1,0-0.1,0c0,0-0.1,0-0.1,0c0,0-0.1,0-0.1-0.1c0,0-0.1-0.1-0.1-0.1c0,0-0.1-0.1-0.1-0.1
	c0,0-0.1-0.1-0.1-0.1c0,0,0-0.1,0-0.1c0,0,0-0.1,0-0.1c0,0,0-0.1,0-0.1c0,0,0-0.1,0-0.1c0,0,0-0.1,0.1-0.1c0,0,0.1-0.1,0.1-0.1
	c0,0,0.1-0.1,0.1-0.1c0,0,0.1-0.1,0.1-0.1c0,0,0.1,0,0.1,0c0.2,0,0.5,0,0.7,0.2c0.1,0.1,0.2,0.3,0.2,0.5c0,0,0,0.1,0,0.1
	c0,0,0,0.1,0,0.1c0,0,0,0.1-0.1,0.1c0,0-0.1,0.1-0.1,0.1C-84.7-41.7-84.9-41.6-85.1-41.6z"/>
<path class="st3" d="M-88.1-41.6h-7.3c-0.4,0-0.7-0.3-0.7-0.7c0-0.4,0.3-0.7,0.7-0.7h7.3c0.4,0,0.7,0.3,0.7,0.7
	C-87.3-41.9-87.6-41.6-88.1-41.6z"/>
<path class="st4" d="M-85-33.3h-10.5c-1.1,0-2.7,3.1-2.7,4.2v6.8h2.7v3.3h10.6v-3.3h2.7v-6.8C-82.2-30.2-83.8-33.3-85-33.3z"/>
<path class="st11" d="M-90.2-29.4l-3.1-3.9h6.3L-90.2-29.4z"/>
<path class="st3" d="M-69.1-44h-11.3c-0.9-1-2.2-1.6-3.6-1.6h-12.6c-2.8,0-5,2.2-5,5v28.3c0,2.8,2.2,5,5,5H-84
	c1.4,0,2.7-0.6,3.6-1.6h11.3c1.5,0,2.8-1.3,2.8-2.8v-29.5C-66.3-42.8-67.5-44-69.1-44z M-79-28.7c0.4-0.2,0.8-0.3,1.3-0.3
	c1.4,0,2.6,1.2,2.6,2.6s-1.2,2.6-2.6,2.6c-0.5,0-0.9-0.1-1.3-0.3V-28.7z M-100-39.1h19.5v24.2H-100V-39.1z M-100-40.6
	c0-1.9,1.6-3.5,3.5-3.5H-84c1.9,0,3.5,1.6,3.5,3.5v0L-100-40.6L-100-40.6z M-84-8.8h-12.6c-1.9,0-3.5-1.6-3.5-3.5v-1.1h19.5v1.1
	C-80.5-10.4-82-8.8-84-8.8z M-67.8-11.7c0,0.7-0.6,1.3-1.3,1.3h-10.3c0.2-0.4,0.3-0.9,0.4-1.4h6.8c0.4,0,0.7-0.3,0.7-0.7
	c0-0.8,0.7-1.5,1.5-1.5c0.4,0,0.7-0.3,0.7-0.7v-2.2c0-0.4-0.3-0.7-0.7-0.7s-0.7,0.3-0.7,0.7v1.5c-1.1,0.3-1.9,1.1-2.2,2.2H-79v-9.3
	c0.4,0.1,0.8,0.2,1.3,0.2c2.3,0,4.1-1.8,4.1-4.1s-1.8-4.1-4.1-4.1c-0.4,0-0.9,0.1-1.3,0.2v-9.3h6.1c0.3,1.1,1.1,1.9,2.2,2.2v13.3
	c0,0.4,0.3,0.7,0.7,0.7s0.7-0.3,0.7-0.7v-14c0-0.4-0.3-0.7-0.7-0.7c-0.8,0-1.5-0.7-1.5-1.5c0-0.4-0.3-0.7-0.7-0.7H-79
	c-0.1-0.5-0.2-0.9-0.4-1.4h10.3c0.7,0,1.3,0.6,1.3,1.3V-11.7z"/>
<path class="st3" d="M-85-34h-10.5c-1,0-1.9,1.1-2.4,2.1c-0.5,0.8-1.1,2.1-1.1,2.9v6.8c0,0.4,0.3,0.7,0.7,0.7h2v2.5
	c0,0.4,0.3,0.7,0.7,0.7h10.6c0.4,0,0.7-0.3,0.7-0.7v-2.5h2c0.4,0,0.7-0.3,0.7-0.7v-6.8c0-0.8-0.6-2.1-1.1-2.9
	C-83.1-32.9-84-34-85-34z M-88.7-32.5l-1.6,2l-1.6-2H-88.7z M-83-23h-1.2v-5c0-0.4-0.3-0.7-0.7-0.7s-0.7,0.3-0.7,0.7v8.3h-9.1V-28
	c0-0.4-0.3-0.7-0.7-0.7c-0.4,0-0.7,0.3-0.7,0.7v5h-1.2v-6c0-0.3,0.3-1.2,0.8-2.1c0.6-1,1.1-1.4,1.2-1.4h1.8l2.9,3.6
	c0.1,0.2,0.4,0.3,0.6,0.3c0.2,0,0.4-0.1,0.6-0.3l2.9-3.6h1.8c0.2,0,0.6,0.4,1.2,1.4c0.5,0.9,0.8,1.7,0.8,2.1V-23z"/>
<path class="st13" d="M2,10.4c0-5,4-9,9-9s9,4,9,9H2z"/>
<path class="st4" d="M29,1.4c-3.2,0-18,0-18,0c5,0,9,4,9,9v27l3-2.9l2.9,2.9l2.9-2.9l3,2.9l2.9-2.9l3.2,2.9v-27
	C38,5.4,34,1.4,29,1.4z"/>
<polygon class="st11" points="30.6,21.5 28.9,18 27.2,21.5 23.3,22.1 26.1,24.8 25.4,28.6 28.9,26.8 32.3,28.6 31.7,24.8 34.4,22.1 
	"/>
<path class="st3" d="M29,0.7H11c-5.4,0-9.7,4.4-9.7,9.7c0,0.4,0.3,0.7,0.7,0.7h17.3c0,0,0,26.2,0,26.3c0,0.6,0.8,1,1.2,0.5l2.5-2.4
	l2.4,2.4c0.3,0.3,0.7,0.3,1,0l2.4-2.4l2.5,2.4c0.3,0.3,0.7,0.3,1,0l2.4-2.4c0,0,2.7,2.5,2.7,2.5c0.5,0.4,1.2,0.1,1.2-0.5v-27
	C38.8,5,34.4,0.7,29,0.7z M11,2.1c2,0,4.1,0.8,5.6,2.2c1.2,1.1,2,2.6,2.4,4.2c0.1,0.4,0.2,0.8,0.2,1.2H2.8C3.2,5.5,6.7,2.1,11,2.1z
	 M37.3,35.7l-2-1.8c-0.3-0.3-0.7-0.3-1,0l-2.4,2.4c0,0-2.5-2.4-2.5-2.4c-0.3-0.3-0.7-0.3-1,0L26,36.4l-2.4-2.4c-0.3-0.3-0.7-0.3-1,0
	l-1.8,1.7V10.4c0-3.5-1.8-6.5-4.6-8.3H29c4.6,0,8.3,3.7,8.3,8.3V35.7z"/>
<path class="st3" d="M23.5,11L23.5,11c0.4,0,0.7-0.3,0.7-0.7c0-1.1-0.2-2.2-0.5-3.3c-0.3-1-0.7-2-1.2-2.8c-0.2-0.3-0.7-0.5-1-0.3
	c-0.3,0.2-0.5,0.7-0.3,1c0.9,1.5,1.4,3.4,1.4,5.4C22.8,10.7,23.1,11,23.5,11z"/>
<path class="st3" d="M23.5,12.5c-0.4,0-0.7,0.3-0.7,0.7c0,0.4,0.3,0.7,0.7,0.7c0.4,0,0.7-0.3,0.7-0.7C24.3,12.8,23.9,12.5,23.5,12.5
	z"/>
<path class="st3" d="M33.2,5.3c-1.2-1-2.3-1.4-2.4-1.4C30.5,3.8,30.1,4,30,4.3c-0.1,0.4,0.1,0.8,0.4,0.9c0,0,3.8,1.4,3.8,5.1v2.9
	c0,0.4,0.3,0.7,0.7,0.7c0.4,0,0.7-0.3,0.7-0.7v-2.9C35.6,8.4,34.8,6.7,33.2,5.3z"/>
<path class="st3" d="M34.6,21.3l-3.5-0.5c0,0-1.5-3.1-1.5-3.1c-0.3-0.5-1-0.5-1.3,0l-1.5,3.1c0,0-3.5,0.5-3.5,0.5
	c-0.6,0.1-0.8,0.8-0.4,1.2l2.5,2.4c0,0-0.6,3.4-0.6,3.5c-0.1,0.6,0.5,1,1.1,0.8l3.1-1.6c0,0,3.1,1.6,3.1,1.6
	c0.5,0.3,1.2-0.2,1.1-0.8L32.5,25c0,0,2.5-2.4,2.5-2.4C35.4,22.2,35.1,21.4,34.6,21.3z M31.2,24.3c-0.2,0.2-0.3,0.4-0.2,0.6l0.4,2.4
	l-2.1-1.1c-0.1-0.1-0.2-0.1-0.3-0.1c-0.1,0-0.2,0-0.3,0.1l-2.1,1.1l0.4-2.4c0-0.2,0-0.5-0.2-0.6l-1.7-1.7l2.4-0.3
	c0.2,0,0.4-0.2,0.6-0.4l1.1-2.2l1.1,2.2c0.1,0.2,0.3,0.4,0.6,0.4l2.4,0.3L31.2,24.3z"/>
</svg>
